/* XPM */
static char *a455f80abcd54f59dc6b994c4edd6328PIIUtKW8g32nFq7p[] = {
/* columns rows colors chars-per-pixel */
"64 64 111 2 ",
"   c #3193A3",
".  c #3092A2",
"X  c #2E8B9A",
"o  c #2E8A9A",
"O  c #3090A0",
"+  c #1C5760",
"@  c #1A5059",
"#  c #1A5159",
"$  c #1A4F58",
"%  c #174850",
"&  c #1C4D55",
"*  c #1D4E56",
"=  c #1A5058",
"-  c #184951",
";  c #407179",
":  c #477880",
">  c #447A83",
",  c #2E8A99",
"<  c #2C8593",
"1  c #184B53",
"2  c #45767E",
"3  c #4D7E86",
"4  c #4F8088",
"5  c #4E7F87",
"6  c #4E8088",
"7  c #49818A",
"8  c #2F8D9C",
"9  c #184B54",
"0  c #4C7D85",
"q  c #5A8E96",
"w  c #5E929A",
"e  c #5D929A",
"r  c #5E939B",
"t  c #558890",
"y  c #54868E",
"u  c #578B93",
"i  c #50828A",
"p  c #5B8E96",
"a  c #4D7D85",
"s  c #498089",
"d  c #3192A2",
"f  c #2E8C9B",
"g  c #5C9098",
"h  c #60959D",
"j  c #568991",
"k  c #52848C",
"l  c #5F949C",
"z  c #578A92",
"x  c #51838B",
"c  c #53858D",
"v  c #5A8D95",
"b  c #598D95",
"n  c #54878F",
"m  c #598C94",
"M  c #588B93",
"N  c #4D7F87",
"B  c #588C94",
"V  c #53868E",
"C  c #52858D",
"Z  c #4C7E86",
"A  c #497E87",
"S  c #447B84",
"D  c #45838D",
"F  c #3391A0",
"G  c #34909F",
"H  c #3491A0",
"J  c #308492",
"K  c #205760",
"L  c #44848E",
"P  c #2F93A4",
"I  c #3093A3",
"U  c #3193A4",
"Y  c #2C8594",
"T  c #1A525B",
"R  c #3092A1",
"E  c #1B525B",
"W  c #3094A4",
"Q  c #3194A4",
"!  c #2C8694",
"~  c #43818B",
"^  c #2D8B9A",
"/  c #2A7F8D",
"(  c #4E7E86",
")  c #3E7078",
"_  c #184F58",
"`  c #194F57",
"'  c #3F6F77",
"]  c #1C4C54",
"[  c #4B7C84",
"{  c #4A7B83",
"}  c #43737B",
"|  c #44747C",
" . c #43747C",
".. c #45757D",
"X. c #4C7C84",
"o. c #4A7A82",
"O. c #497A82",
"+. c #46767E",
"@. c #497981",
"#. c #42727A",
"$. c #46777F",
"%. c #487981",
"&. c #47777F",
"*. c #487880",
"=. c #427881",
"-. c #4A8089",
";. c #46828C",
":. c #308795",
">. c #2A818F",
",. c #184850",
"<. c white",
/* pixels */
"                                                                                                                                ",
"      . X o o o o o o o o o o o o o o o o o o o o o o o o o o o o o o o o o o o o o o o o o o o o o o o o o o o o o o o o o o o ",
"      O + @ # # @ @ @ @ @ @ @ @ @ @ @ @ @ @ @ @ @ @ @ @ @ @ @ @ @ @ @ @ @ @ @ @ @ @ @ @ @ @ @ @ @ @ @ @ @ @ @ @ @ @ @ @ @ # # # ",
"      O $ % % % & * * * * * * * * * * * * * * * * * * * * * * * * * * * * * * * * * * * * * * * * * * * * * * * * @ @ @ $ % % % ",
"      O = % - - ; : : : : : : : : : : : : : : : : : : : : : : : : : : : : : : : : : : : : : : : : : : : : : : : > , o X < 1 - - ",
"      O = % - - 2 3 3 3 4 4 4 4 4 4 4 4 4 4 4 4 4 4 4 4 4 4 4 4 5 3 3 3 5 4 4 4 6 3 3 3 3 3 3 3 3 4 4 4 4 3 3 3 7       8 9 - - ",
"      O = % - - 2 3 3 0 q w e e e e e e e e e e e e e e w w w r t 0 0 0 y r w r u 0 3 3 0 0 0 0 i r w w p 0 3 a s d     f 9 - - ",
"      O = % - - 2 3 3 0 g h h h h h h h h h h h h h h h r w w r j 5 4 5 t r w r u 0 3 0 3 4 4 6 k r w w p 0 3 a s d     f 9 - - ",
"      O = % - - 2 3 3 0 g h h h h h h h h h h l h h h h j 5 6 5 j r w r z 5 4 4 5 0 0 0 x r w w q 6 4 4 6 0 3 a s d     f 9 - - ",
"      O = % - - 2 3 3 0 g h h h h h h h h h h h r e e r t 5 6 5 j r w r j 0 0 0 3 4 4 6 c r w w v 0 0 0 0 3 3 a s d     f 9 - - ",
"      O = % - - 2 3 3 0 g h h h h h h l h h h h t 5 6 5 z r w r j 5 4 4 5 0 0 0 c r w r b 5 4 4 5 0 3 3 3 3 3 a s d     f 9 - - ",
"      O = % - - 2 3 3 0 g h h h h h h h r e e r n 5 6 5 z r w r t 0 0 0 3 4 4 6 n r w r m 0 0 0 0 3 3 3 3 3 3 a s d     f 9 - - ",
"      O = % - - 2 3 3 0 g h h l h h h h y 5 6 5 M r w r t 5 4 4 N 0 0 0 y r w r B 5 4 4 5 0 3 3 3 3 3 3 3 3 3 a s d     f 9 - - ",
"      O = % - - 2 3 3 0 g h h h r e e r c 5 6 5 M r w r n 0 0 0 N 4 4 5 t r w r u 0 0 0 0 3 3 3 3 3 3 3 3 3 3 a s d     f 9 - - ",
"      O = % - - 2 3 3 0 g h h h c 5 6 5 m r w r n 5 4 4 N 0 0 0 t r w r z 5 4 4 5 0 3 3 3 3 3 3 3 3 3 3 3 3 3 a s d     f 9 - - ",
"      O = % - - 2 3 3 0 q w e w k 6 6 5 m r w r c 0 0 0 5 4 4 5 j r w r j 0 0 0 0 3 3 3 3 3 3 3 3 3 3 3 3 3 3 a s d     f 9 - - ",
"      O = % - - 2 3 3 0 5 6 6 5 q w w r V 6 4 4 3 0 0 0 j r w r j 5 4 4 5 0 3 3 3 3 3 3 3 3 3 3 3 3 3 3 3 3 3 a s d     f 9 - - ",
"      O = % - - 2 3 3 0 5 6 6 5 q w w r k 0 0 0 5 4 4 5 z r w r t 0 0 0 0 3 3 3 3 3 3 3 3 3 3 3 3 3 3 3 3 3 3 a s d     f 9 - - ",
"      O = % - - 2 3 3 0 q w w r C 6 4 4 3 0 0 0 z r w r t 5 4 4 5 0 3 3 3 3 3 3 3 3 3 3 3 3 3 3 3 3 3 3 3 3 3 a s d     f 9 - - ",
"      O = % - - 2 3 3 0 q w w r x 0 0 0 5 4 4 5 M r w r n 0 0 0 0 3 3 3 3 3 3 3 3 3 3 3 3 3 3 3 3 3 3 3 3 3 3 a s d     f 9 - - ",
"      O = % - - 2 3 3 0 6 4 4 4 3 0 0 0 B r w r n 5 4 4 N 0 3 3 3 3 3 3 3 3 3 3 3 3 3 3 3 3 3 3 3 3 3 3 3 3 3 a s d     f 9 - - ",
"      O = % - - 2 3 3 3 0 0 0 0 5 4 4 5 b r w r c 0 0 0 0 3 3 3 3 3 3 3 3 3 3 3 3 3 3 3 3 3 3 3 3 3 3 3 3 3 3 a s d     f 9 - - ",
"      O = % - - 2 3 3 3 0 0 0 0 b r w r V 6 4 4 3 0 3 3 3 3 3 3 3 3 3 3 3 3 3 3 3 3 3 3 3 3 3 3 3 3 3 3 3 3 3 a s d     f 9 - - ",
"      O = % - - 2 3 3 0 6 4 4 6 q w w r k 0 0 0 0 3 3 3 3 3 3 3 3 3 3 3 3 3 3 3 3 3 3 3 3 3 3 3 3 3 3 3 3 3 3 a s d     f 9 - - ",
"      O = % - - 2 3 3 0 q w w r C 6 4 4 3 0 3 3 3 3 3 3 3 3 3 3 3 3 3 3 3 3 3 3 3 3 3 3 3 3 3 3 3 3 3 3 3 3 3 a s d     f 9 - - ",
"      O = % - - 2 3 3 0 q w w r x 0 0 0 0 3 3 3 3 3 3 3 3 3 3 3 3 3 3 3 3 3 3 3 3 3 3 3 3 3 3 3 3 3 3 3 3 3 3 a s d     f 9 - - ",
"      O = % - - 2 3 3 0 6 4 4 4 3 0 3 3 3 3 3 3 3 3 3 3 3 3 3 3 3 3 3 3 3 3 3 3 3 3 3 3 3 3 3 3 3 3 3 3 3 3 3 a s d     f 9 - - ",
"      O = % - - 2 3 3 3 0 0 0 0 0 3 3 3 3 3 3 3 3 3 3 3 3 3 3 3 3 3 3 3 3 3 3 3 3 3 3 3 3 3 3 3 3 3 3 3 3 3 3 a s d     f 9 - - ",
"      O = % - - 2 3 3 3 3 3 3 3 3 3 3 3 3 3 3 3 3 3 3 3 3 3 3 3 3 3 3 3 3 3 3 3 3 3 3 Z a a a a a a a a a 3 3 3 7 d     f 9 - - ",
"      O = % - - 2 3 3 3 3 3 3 3 3 3 3 3 3 3 3 3 3 3 3 3 3 3 3 3 3 3 3 3 3 3 3 3 3 3 3 a Z s s s s s s s A : : : S d     f 9 - - ",
"      O = % - - 2 3 3 3 3 3 3 3 3 3 3 3 3 3 3 3 3 3 3 3 3 3 3 3 3 3 3 3 3 3 3 3 3 3 3 a D F G G G G G H J * * * K .     f 9 - - ",
"      O = % - - 2 3 3 3 3 3 3 3 3 3 3 3 3 3 3 3 3 3 3 3 3 3 3 3 3 3 3 3 3 3 3 3 3 3 3 a L P I I I I I U Y % % % T R     f 9 - - ",
"      O = % - - 2 3 3 3 3 3 3 3 3 3 3 3 3 3 3 3 3 3 3 3 3 3 3 3 3 3 3 3 3 3 3 3 3 3 3 a L I             Y % - % E R     f 9 - - ",
"      O = % - - 2 3 3 3 3 3 3 3 3 3 3 3 3 3 3 3 3 3 3 3 3 3 3 3 3 3 3 3 3 3 3 3 3 3 3 a L I             Y % - % E R     f 9 - - ",
"      O = % - - 2 3 3 3 3 3 3 3 3 3 3 3 3 3 3 3 3 3 3 3 3 3 3 3 3 3 3 3 3 3 3 3 3 3 3 a L W           Q ! % - % E R     f 9 - - ",
"      O = % - - 2 3 3 3 3 3 3 3 3 3 3 3 3 3 3 3 3 3 3 3 3 3 3 3 3 3 3 3 3 3 3 3 3 3 3 a ~ ^ o o o o o X / % - % E R     f 9 - - ",
"      O = % - - 2 3 3 3 3 3 3 3 3 3 3 3 3 3 3 3 3 3 3 3 3 3 3 3 3 3 3 3 3 3 3 3 3 3 3 ( ) _ @ @ @ @ @ @ ` % % % T R     f 9 - - ",
"      O = % - - 2 3 3 3 3 3 3 3 3 3 3 3 3 3 3 3 3 3 3 3 3 3 3 3 3 3 3 3 3 3 3 3 3 3 3 5 ' ] * * * * * * * * * * K .     f 9 - - ",
"      O = % - - 2 3 3 3 3 3 3 3 3 3 3 3 3 3 3 3 3 3 3 3 3 3 3 3 3 3 3 3 3 3 3 3 3 3 3 3 [ : : : : : : : : : : : S d     f 9 - - ",
"      O = % - - 2 3 3 3 3 3 3 3 3 3 3 3 3 3 3 3 3 3 3 3 3 3 3 3 3 3 3 3 3 3 3 3 3 3 3 0 3 3 3 3 3 3 3 3 3 3 3 3 7 d     f 9 - - ",
"      O = % - - 2 3 3 3 3 3 3 3 3 3 3 3 3 3 3 3 3 3 3 3 3 3 3 3 3 3 3 3 3 3 3 3 3 3 3 3 3 3 3 3 3 3 3 3 3 3 3 a s d     f 9 - - ",
"      O = % - - 2 3 3 3 3 3 3 3 3 3 3 3 3 3 3 3 3 3 3 3 3 3 3 3 3 3 3 3 3 3 3 3 3 3 3 3 3 3 3 3 3 3 3 3 3 3 3 a s d     f 9 - - ",
"      O = % - - 2 3 3 3 3 3 3 3 3 3 3 3 3 3 3 3 3 3 3 3 3 3 3 3 3 3 3 3 3 3 3 3 3 3 3 3 3 3 3 3 3 3 3 3 3 3 3 a s d     f 9 - - ",
"      O = % - - 2 3 3 3 3 3 3 3 3 3 3 3 3 3 3 3 3 3 3 3 3 3 3 3 3 3 3 3 3 3 3 3 3 3 3 3 3 3 3 3 3 3 3 3 3 3 3 a s d     f 9 - - ",
"      O = % - - 2 3 3 3 3 3 3 3 3 3 3 3 3 3 3 3 3 3 3 3 3 3 3 3 3 3 3 3 3 3 3 3 3 3 3 3 3 3 3 3 3 3 3 3 3 3 3 a s d     f 9 - - ",
"      O = % - - 2 3 3 3 3 3 3 3 3 3 3 3 3 3 3 3 3 3 3 3 3 3 3 3 3 3 3 3 3 3 3 3 3 3 3 3 3 3 3 3 0 [ [ [ 0 3 3 a s d     f 9 - - ",
"      O = % - - 2 3 3 3 3 3 3 3 3 3 3 3 3 3 3 3 3 3 3 3 3 3 3 3 3 3 3 3 3 3 3 3 3 3 3 3 3 3 3 3 { } |  ...3 3 a s d     f 9 - - ",
"      O = % - - 2 3 3 3 3 3 3 3 3 3 3 3 3 3 3 3 3 3 3 3 3 3 3 3 3 3 3 3 3 3 3 3 3 3 3 3 0 [ [ X.o.} |  ...3 3 a s d     f 9 - - ",
"      O = % - - 2 3 3 3 3 3 3 3 3 3 3 3 3 3 3 3 3 3 3 3 3 3 3 3 3 3 3 3 3 3 3 0 3 3 3 3 { } | } 2 0 [ [ 0 3 3 a s d     f 9 - - ",
"      O = % - - 2 3 3 3 3 3 3 3 3 3 3 3 3 3 3 3 3 3 3 3 3 3 3 3 3 3 3 3 3 3 3 3 0 [ [ X.O.} | } 2 0 [ [ 0 3 3 a s d     f 9 - - ",
"      O = % - - 2 3 3 3 3 3 3 3 3 3 3 3 3 3 3 3 3 3 3 3 3 3 3 3 3 3 3 0 3 3 3 3 O.} | } +.0 [ 0 o. .| | ..3 3 a s d     f 9 - - ",
"      O = % - - 2 3 3 3 3 3 3 3 3 3 3 3 3 3 3 3 3 3 3 3 3 3 3 3 3 3 3 3 0 [ [ 0 @.} | } +.0 [ 0 O.#.#.#.| 3 3 a s d     f 9 - - ",
"      O = % - - 2 3 3 3 3 3 3 3 3 3 3 3 3 3 3 3 3 3 3 3 3 3 3 0 3 3 3 3 @.} | } $.0 [ 0 O.} | | } #.} #.| 3 3 a s d     f 9 - - ",
"      O = % - - 2 3 3 3 3 3 3 3 3 3 3 3 3 3 3 3 3 3 3 3 3 3 3 3 0 [ [ 0 %.} | } $.0 [ 0 @.#.#.#.#.} } #.| 3 3 a s d     f 9 - - ",
"      O = % - - 2 3 3 3 3 3 3 3 3 3 3 3 3 3 3 3 3 3 3 0 3 3 3 3 %.} | } &.0 [ 0 @.} | | } #.} } } } } #.| 3 3 a s d     f 9 - - ",
"      O = % - - 2 3 3 3 3 3 3 3 3 3 3 3 3 3 3 3 3 3 3 3 0 [ [ 0 *.} | } &.0 [ 0 %.#.#.#.#.} } } } } } #.| 3 3 a s d     f 9 - - ",
"      O = % - - 2 3 3 3 3 3 3 3 3 3 3 3 3 3 3 3 3 3 3 3 : } | } : 0 [ 0 %.} | | } #.#.#.#.#.#.#.#.#.#.#.| 3 3 a s d     f 9 - - ",
"      O = % - - 2 3 3 3 3 3 3 3 3 3 3 3 3 3 3 3 3 3 3 3 : } | } %.3 3 3 @.} | | | | | | | | | | | | | | ..3 3 a s d     f 9 - - ",
"      O = % - - 2 3 a a a a a a a a a a a a a a a a a a 0 X.X.X.0 a a a 0 X.X.X.X.X.X.X.X.X.X.X.X.X.X.X.X.a a a s d     f 9 - - ",
"      O = % - - =.-.s s s s s s s s s s s s s s s s s s s -.-.-.s s s s s -.-.-.-.-.-.-.-.-.-.-.-.-.-.-.-.s s -.;.d     f 9 - - ",
"      O = % - - :.H H H H H H H H H H H H H H H H H H H H H H H H H H H H H H H H H H H H H H H H H H H H H H H F       8 9 - - ",
"      O = % - - >.X X X X X X X X X X X X X X X X X X X X X X X X X X X X X X X X X X X X X X X X X X X X X X X X o o X < 1 - - ",
"      O = % - - $ # # # # # # # # # # # # # # # # # # # # # # # # # # # # # # # # # # # # # # # # # # # # # # # # # # # @ - - - ",
"      O = % - ,.% % % % % % % % % % % % % % % % % % % % % % % % % % % % % % % % % % % % % % % % % % % % % % % % % % % % % % - - "
};
