/* XPM */
static char *_40794a8e6344c61b2431845370c37a06U76ZTDNJSzjiI8a[] = {
/* columns rows colors chars-per-pixel */
"64 64 138 2 ",
"   c #A6ACBD",
".  c #A9AFBB",
"X  c #ABAEC2",
"o  c #ADB2C5",
"O  c #AEB3C9",
"+  c #B1B4C6",
"@  c #B5B8C7",
"#  c #BABAC6",
"$  c #B2B6CA",
"%  c #B5BACD",
"&  c #B9BCCE",
"*  c #B7BCD0",
"=  c #BABED2",
"-  c #BDC1CE",
";  c #BDC2D5",
":  c #BFC4D8",
">  c #BFC9DB",
",  c #C0C2CF",
"<  c #C1C4D6",
"1  c #C5C9D6",
"2  c #C2C6DA",
"3  c #C5CADD",
"4  c #C9CCDD",
"5  c #D1CEDF",
"6  c #CDD1DF",
"7  c #C7CCE0",
"8  c #CDCEE3",
"9  c #CCCFE2",
"0  c #CCCDE2",
"q  c #C9CEE4",
"w  c #CDCFE4",
"e  c #CECFE4",
"r  c #CACEE1",
"t  c #CAD0E0",
"y  c #C9D0E3",
"u  c #CBD0E3",
"i  c #CDD0E1",
"p  c #CFD1E0",
"a  c #CCD2E0",
"s  c #CDD3E1",
"d  c #CED1E2",
"f  c #CDD3E3",
"g  c #CFD2E3",
"h  c #CBD0E4",
"j  c #CAD1E4",
"k  c #CBD2E5",
"l  c #CCD1E4",
"z  c #CCD1E5",
"x  c #CED1E4",
"c  c #CED0E5",
"v  c #CFD0E5",
"b  c #CDD2E5",
"n  c #CFD2E5",
"m  c #CFD1E6",
"M  c #CDD2E6",
"N  c #CCD3E6",
"B  c #CED3E6",
"V  c #CDD4E7",
"C  c #CFD4E7",
"Z  c #CDD1E4",
"A  c #CED3E9",
"S  c #CED5E8",
"D  c #CFD6E9",
"F  c #CFD4E8",
"G  c #D0D2E1",
"H  c #D0D3E4",
"J  c #D0D1E6",
"K  c #D0D3E6",
"L  c #D0D2E7",
"P  c #D1D2E7",
"I  c #D2D3E7",
"U  c #D1D4E5",
"Y  c #D1D7E5",
"T  c #D1D4E7",
"R  c #D1D4E6",
"E  c #D2D8E6",
"W  c #D6D8E7",
"Q  c #D4D9E6",
"!  c #D2D3E8",
"~  c #D0D5E8",
"^  c #D0D5E9",
"/  c #D2D5E8",
"(  c #D2D4E9",
")  c #D3D4E9",
"_  c #D1D6E9",
"`  c #D3D6E9",
"'  c #D3D5EA",
"]  c #D2D7EA",
"[  c #D2D7EB",
"{  c #D4D7EA",
"}  c #D4D6EB",
"|  c #D5D6EB",
" . c #D2D7ED",
".. c #D5D7EC",
"X. c #D6D7EC",
"o. c #D2D6E9",
"O. c #D1D8EA",
"+. c #D5D8EB",
"@. c #D6D9EA",
"#. c #D6DCEA",
"$. c #D3DAED",
"%. c #D4D9EC",
"&. c #D7D8ED",
"*. c #D5DAED",
"=. c #D7D9EE",
"-. c #D5DAEE",
";. c #D4DBEE",
":. c #D7DCEF",
">. c #D5D9EC",
",. c #DADCEB",
"<. c #D8DBEE",
"1. c #D9DAEF",
"2. c #D9DFED",
"3. c #D9DCED",
"4. c #D5DAF0",
"5. c #D6DBF1",
"6. c #D7DCF1",
"7. c #D9DBF0",
"8. c #D8DDF0",
"9. c #DADDF0",
"0. c #D9DEF1",
"q. c #DBDEF1",
"w. c #DADFF2",
"e. c #DADEF1",
"r. c #DDE0EF",
"t. c #D9E0F3",
"y. c #DCE1F4",
"u. c #DDE2F5",
"i. c #DDE1F5",
"p. c #DFE4F8",
"a. c #E1E2F6",
"s. c #E2E5F6",
"d. c #E5E8F7",
"f. c #E0E5F8",
"g. c #E2E7FA",
"h. c #E6EAFC",
"j. c #ECEFFE",
"k. c #F3F7FF",
/* pixels */
"1 4 #.2.Y E 2.2.< ; ; 2 _ *.3 3 4 P e 7 _ } 8 7 8 e 8 < ; ! 1.4 3 7 2 } < M _ 2 ; ; ; ; f +.G < ; 7 t 2 ; 2 3 3 3 2 1 o $ M M M ",
"; ; 3 f 6 f 3 & : & 3 t h h 2 7 4 ! P P } M < & 4 e P 7 7 X.X.< < 7 4 e ; 4 X.3 h 7 ; & & 3 6 G ; < 2 : : 3 7 M _ 2 ; % 3 u.3 % ",
"3 3 t 3 ; ; 3 < < & t M : 2 q  .3 M M M } M ; * % = 3 4 7 *.} ; = 4 7 2 = < *.7 3 3 1 2 ; & < 4 t 3 3 3 3 3 3 7 g.M 2 % : C t 7 ",
"3 4 f 1 % & 3 3 3 & 3 2 % 7 5. .7 7 3 2 4 3 ; ; $ % = < 3 P M = = 3 7 * = = 7.M : : 3 C f < & ; *._ _ _ 7 : ; 3 3 3 7 7 7 3 3 t ",
":.0.u.u.0.u.0.3 3 & 1 = % _ 5.: 7 3 ; % ; = % * 2 ; 2 3 3 7 3 % 3 e 7 * 3 2 7._ h 3 2 7 Y f 4 4 7 M *.*.3 & = 2 ; ; ; 3 7 3 3 3 ",
"2 3 M 3 ; 2 1 % < : 7 ; ; _ q O 2 2 = ; 2 2 ; 2 3 : 3 M M M 3 % M _ 3 < M 7 } } 7 2 ; 1 f P f 4 2 3 M t : $ $ % ; 3 2 1 ; = 7 C ",
"; 3 M 2 $ * 3 1 ; 1 _ 7 2 3 = = : : ; 1 S C h $.3 ; : t M C 7 ; P _ ; 3 e 3 3 _ : 1 3 3 4 f f 4 1 1 2 : : : = $ o 3 M *.t ; 1 ; ",
"; 2 7 3 2 M M ; ; 3 *.M : % $ A t 3 : 1 S S S t.*.3 : 3 7 h h 3 8 P % 7 4 < * M 3 M M 3 < 4 Q ,.2 ; % & 3 *.M ; ; 3 % ; 3 3 7 $ ",
"2 ; ; 7 7 ; = ; 7 :.2 C 0.; ; 3 O.o ; _ 4 q.a.8 1 3 6 ; f 2 7 P _ 3 ; 2 3 2 : 2 8 2 2 ; *.7 2 = < 8 $ ; 0.M 7 4 7 < 4 2 M ; 3 7 ",
":.7 2 3 2 % % : & 1 ; 2 3 ; 2 _ $ ; u.*.< _ P $ - < 4 < f 2 7 Y 7 3 2 2 3 7 7 3 f _ } 3 M 2 < ; Y 1.2 4 _ 2 2 2 3 3 2 4 M } 4 ; ",
"_ 2 ; 1 3 ; 2 _ 3 3 t 3 3 7 3 C 7 O.s.M 7 s.P X & < 4 < 4 < 3 7 ; 3 7 2 2 h M 3 8 2 2 3 _ 3 e 7.< 3 < 4 7 4 } 1.3 } 8 M 3 q.8 ; ",
"_ 3 2 7 7 ; ; 2 M 2 C 3 3 _ ; % :.3 ; = f 1.< + 1 f f 4 4 ; ; 3 ; 3 7 3 3 7 7 7 8 Y < + < P 8 = 4 3 3 7 2 2 P _ M y.1.P ; 8 f M ",
"3 2 2 7 t 1 ; ; 3 ; C 3 3 _ 2 = : & = ; 3 < $ 2 Y +.G 4 3 2 ; 3 3 3 7 7 7 : ; 3 +.3 & 4 P 2 % < _ 4 7 4 2 2 4 8 *._ *.7 4 < 7 _ ",
"% & = : 3 7 3 2 ; 3 C 3 2 3 3 t = : 7 ; ; 3 4 0.4 f < < < 2 = 2 7 3 3 M 7 ; = 2 Y 4 4 h.y.2 & *.2 = 2 < 2 7 4 _ 0.2 4 4 2.2 3 4 ",
"= 2 1 ; 2 3 ; X $ 1 ; = : & = ; ; ; : $ & 8 8 P < 3 & < < 4 ; 2 7 7 7 7 3 2 ; ; 1 k.j.6 & +.7 & 3 3 7 < 3 3 & 7 0.3 3 _ 0.4 < 2 ",
"X ; 2 ; 3 M 2 X % 3 O ; *.3 ; & * & 7 M 4 f 2 < 1 4 - 4 4 +.3 7 3 h h 3 3 7 3 ; 4 Y - & % 3 < M 3 f _ 3 P M = +.q.*.M u.M 4 = 3 ",
"% ; O.0.3 = ; 2 2 : t _ *.3 $ ; - 4 6 1 - 4 Y 1 4 6 Y f f f 4 2 1 < < 3 Y *.e ; 7 2 2 ; M ; ; : M *.0.*.P 7 3 < 3 3 t t 3 7 t 1 ",
"& % ; : ; 2 3 : 2 ; 3 M _ 3 % 3 s.6 < 4 ,.d.2.< < 1 1 < 4 f 8 3 6 4 4 f *.2.M < : ; M 0.u.& ; y.3 2 2 4 M M 4 2 7 : : ; % ; 3 3 ",
"; % ; 3 7 7 7 2 2 ; 2 2 t 7 1 *.1 4 +.r.f < 3 4 6 4 < < 2 4 4 2 Y f 8 8 P P 2 & 2 *.h.*._ ; 3 _ 3 ; ; 3 4 3 < < ; % % & $ = 7 *.",
"M 1 M 0._ 2 3 _ = $ = 2 _ _ 3 _ < < 4 4 & @ & - Y Y 4 1 < < 2 3 Y f 4 4 4 2 = % 3 *.*.% : 2 7 2 3 2 3 8 3 = = 2 1 ; 2 3 ; % ; 3 ",
"0._ _ 7 ; ; M 0.O o & 2 _ _ ; ; 2.f < & + = 4 3 < 4 f 4 < < 3 P / f 8 4 7 3 2 2 3 % $ o 2 ; 3 C 3 ; 2 f f 2 < 4 ; = 3 f 2 ; 3 4 ",
"7 _ M = = C *.1 2 = & % ; 3 ; 3 3 P 2.4 $ % 7 _ < 4 Y Y 4 3 7 _ 4 4 8 f f 4 7 8 2 2 2 % 3 ; 3 t f 2 ; 4 P M 3 2 < < 4 7 2 4 Y Y ",
"2 3 7 2 1 _ M % 3 2 2 % & ; : *.< = < 4 3 2 3 < 6 4 6 Y Y 8 4 4 < 1 4 f 7 2 ; 2 ; C :.2 7 3 7 1 P 8 4 3 4 7 7 4 } } } 4 < 2 4 < ",
"C : 2 7 1 = = ; X = t 7 3 2 = 7 4 $ + ; < < 3 f 6 1 ; 4 Y Y 3 ; < < 4 f 3 & $ $ % $ : 3 :.3 7 0.3 Y *.7 < 2 Y y.; 2 3 < = 4 P 2 ",
"3 4 3 2 4 2 < P h % 3 7 % ; 2 2 2 +.2.3 % & 3 3 O.f 2 ; 7 3 $ 7 3 3 7 M M 7 2 : 7 : * % < 4 5 4 f 3 M _ 3 7 P 4 = 3 + X 8 1.3 < ",
"6 4 < < 2 2 3 P 7 : 7 2 = 3 3 2 4 3 4 Y Y 4 < < 3 E _ 2 3 3 = S 3 3 2 2 2 : ; % > ; : 4 P 8 4 4 2 < 3 7 3 4 M 8 < 7 2 < 8 7 2 f ",
"6 < ; < 2 3 7 4 M M S ; ; 7 3 ; f 3 3 f Y f 4 4 : E *.2 2 3 ; q 3 7 3 2 3 3 2 * * % = f P 2 < 1 2 4 3 3 3 3 2 4 : : 3 M 8 2 3 Y ",
"4 < 4 f 4 7 e 2 _ _ S ; ; 7 ; ; 3 } 2.8 3 f Y Y 3 4 3 = 2 7 * = 7 h h 7 M $.M : $ $ & 2 2 < ; 1 4 _ 8 3 8 3 < 4 2 * = 8 M M Y Y ",
"3 1 f } 4 7 M 3 *._ h ; ; 2 = 2 < ,.s.+.4 8 f 4 t : ; = 2 2 % = 3 3 3 3 7 M 7 2 ; 1 3 2 2 3 3 2 3 Y 8 3 M 7 3 Y 7 2 2 4 f *.1.P ",
"1 1 4 3 ; 2 4 3 *.7 7 ; % ; ; 3 Y P Y +.Y 4 4 f 3 ; 2 2 ; = = q 3 3 : ; ; 2 3 3 1 C O.t 7 M 7 ; 8 P 8 4 4 3 3 7 7 e 7 3 3 7 8 f ",
"< 3 < ; < 2 < 2 _ 7 M = o : 7 7 Y f 4 8 4 3 4 f 3 < t 2 % = 2  .3 2 2 7 3 2 3 M 4 f Y f 7 7 3 ; _ M M 8 2 < 2 2 2 7 2 2 7 2 ; f ",
"1 f 4 < M f < < h 3 _ =   3 0.M % 4 +.f 4 8 4 < t 3 M ; O ; 7 q ; ; 7 *.*.7 7 _ 6 4 3 4 7 7 3 7 P 3 8 8 < 2 7 3 2 < % 2 0.8 < } ",
"< 2 < _ = 8 X.< = 3 3 < 7 1.P = ; 7 M 3 ; 2 3 3 2 : 3 o $ M 7 7 3 t 2.y.O.O.2.:.< % 2 2 0.S 3 7 4 / / f M M h C 7 8 3 ; 3 X.! 2 ",
"; 3 4 M = 3 *.3 4 2 & % = 2 7 M ; 2 2 ; : 3 7 M _ 2 ; $ 1 0.3 % 1 : 3 C C C 3 & ; & M 7 C 3 7 7 8 P 8 M :.$.: O 7 ! M 3 7 X.} 7 ",
"= 3 P 3 % = *.7 M 2 ; 3 2 = ; 4 7 3 2 2 1 1 3 7 g.M : $ ; M t M 1 1 7 3 = ; 2 ; ; & O.3 : 2 A M 2 P Y Y *.t ; $ * 2 4 2 3 e M 4 ",
"= 3 P = % % X.8 2 < 4 +._ 2 = < *.C M M 3 ; 2 7 3 1 7 t t 7 3 7 2 3 7 : $ % 3 3 1 & M ; % 3 0.A 3 M 7 3 < ; ; 1 + = < 2 2 3 2 = ",
"3 7 8 = = * } 7 < < 2 7 f 7 4 4 t M O._ 3 = = 3 = = ; 7 t 3 1 2 0.0.u.t.0.p.0.7 t & 3 & = M 6.2 _ 7 * o % & @ & ; 2 3 8 M 7 ; $ ",
"e e 2 < 3 2 P e 3 7 7 3 4 M f 3 3 7 M t : $ $ & 2 3 : 2 ; & 7 _ 3 7 h 3 ; 3 3 % 4 & 7 ; 3 M q $ 7 3 * $ & & # < < ; < 8 } P 2 * ",
"! M = 3 7 3 4 e 4 M P 8 3 4 7 4 3 3 2 2 : ; * O $ 3 M O.7 ; 3 2 : 7 h : O * 2 2 < < _ 2 3 2 : = : : : ; 1 < , 4 < & * 3 P M 4 2 ",
"M 8 $ 8 4 2 < e 3 3 2 ; = ; M q.2 ; % & 3 O.7 = ; 3 & 2 7 3 7 $ 2 7 7 3 2 M A : ; 3 0.2 : % = q S 2 % = f 4 - # P 3 2 7 P e 4 4 ",
"$.h 7 = ; M 7 7 7 3 u._ ; = o ; 3 3 $ : _ t M 3 M ; 2 2 P 2 4 3 & ; 4 f 2 % = 3 M _ M } *.2 & 7 M S ; ; Y 4 & < 7 4 7 $ 4 4 4 P ",
"S 2 2 ; 3 _ 2 = ; h M t.S ; 3 % t M ; 3 C 1 1 ; 2 3 4 7 8 P 4 < #.4 < 1 2 = = ; < 2 2 7 _ 3 < _ 3 7 = & f 4 < f _ 7 Y < f 4 3 f ",
"7 ; 2 3 7 M ; = 2 7 2 M S M u.7 ; 2 = 2 M 7 _ *.2 +.M Y 2 1.7 2 E < & : 3 3 3 M 2 2 < 4 Y 7 7 2.7 S 3 = 3 4 4 +.P < M 7 7 2 2 4 ",
"3 ; 7 7 3 2 ; M 3 = 3 = 2 u.0.6.M M 2 2 3 3 t *._ q._ 8 2 Y M 7 f 3 3 M 7 ; ; 3 _ M f Y +._ Y *.3 _ 7 ; < 3 6 2.7 % 4 f 2 < 2 3 ",
"3 2 M 7 2 : ; M = $ 3 * = _ 7 3 _ M 3 1 7 7 3 M 0._ _ 3 7 2 8 P 2 2 3 M 7 ; ; 1 2 < 2 4 4 4 4 2 * 1 3 ; < 2 f 2.8 & 3 f < 2 < 3 ",
"h 3 7 7 7 3 = ; ; 3 = ; * % h ; = = 3 3 _ *.7 _ *.3 8 7 *.; 3 7 = % = 2 4 t 3 < 2 3 P *.+.0.y.+.; : 1 3 < < 4 Y 8 < 2 4 ; 3 = 2 ",
"7 3 h 3 3 7 ; * 7 M ; 3 ; % M 2 = ; t 7 M t ; 7 *.4 7 +.*.2 ; 3 2 2 ; ; 3 4 -   $ % 2 3 ; 3 7 ; 3 : 3 7 3 ; 1 4 3 3 < 2 2 M = 2 ",
"2 7 _ 3 : 3 2 3 3 = _ M 7 h ; 2 = ; 7 2 2 1 = _ a.*.7 q.Y 8 ; 2 O ; 3 2 3 6 ; . < 2 f 7 = ; 2 % 3 % = 7 3 ; 1 4 3 8 2 3 7 0.< 4 ",
"1 1 ; 1 C +.f ; 2 3 3 2 M t.O.: % 2 : ; = * 3 2 3 M _ t 7 7 7 3 o 7 7 3 _ 2 $ 3 2 ; 2 ; % 2 P 2 e *.8 3 2 3 G 1 < Y 6 4 Y M 3 4 ",
"6 6 4 6 O.:.M 2 ; t M 7 2 M 3 ; 7 M 3 3 3 2 7 2 : 2 ; = ; 2 7 M ; % 2 7 = ; 3 = < $ = 3 ; = < 2 ; < & 2 Y +.,.4 < 1 < < 4 f 4 3 ",
"f f 4 4 f t 2 % 2 2 % 1 7 p.7 % 7 3 ; 3 7 3 7 2 2 ; % $ % = 3 C = ; 2 7 _ M 3 2 = 2 7 2 = 2 3 & + & = 4 8 3 4 4 Y 4 1 < < 3 4 ; ",
"Y f 4 3 3 2 ; % 1 C 7 _ ; 7 ; ; 2 ; % 2 3 2 3 2 t 1 ; ; ; ; 2 7 1 7 t S 0.*.3 2 2 } _ = % 3 7 & & < 2 M 3 $ = < Q 4 6 4 & ; 3 < ",
"O.Y f M 7 7 3 3 ; 7 7 M ; 2 ; 3 3 7 2 3 2 = 2 2 _ 7 2 ; ; ; 3 7 g.3 _ O.& ; C & 7 3 2 < ; = = 2 f 2 & 4 f < 3 2 < < f f ; ; 8 f ",
"4 4 7 M h 7 7 q 2 ; ; 2 3 3 1 2 ; M h 7 ; * 3 3 M 3 ; % = 2 7 M _ 7 7 3 ; ; 3 : < 3 ; ; 3 3 < < 4 3 & 3 4 < 7 7 - 1 G Y 4 2 8 _ ",
"; : 3 7 3 : = ; 2 1 *.7 3 o & ; % M M 3 = % 3 3 3 3 2 % = 3 M 3 = S 1 ; *.t = M 2 M 2 = 4 _ 7 2 < 1 < 3 < * 3 4 4 4 4 f Y 7 3 4 ",
"; 2 t _ 7 = $ $ = o 2 ; u.7 _ 3 = $._ 3 % % 2 ; 2 t 7 ; : t 7 ; M 3 1 2 3 7 7 7 0.7 % ; P 3 ; _ - ; @ < 7 7 8 < 6 4 - < +.P ; ; ",
"2 3 2 _ 3 h 2 3 q 2 % $ = 4 6 4 2 3 P 8 & & 3 2 _ 7 $ X 8 0.2 3 7 7 3 3 3 7 7 7 ; 7 3 3 *.M = : 4 } +.4 & & < 4 Y f 4 ; 3 3 * 3 ",
"7 3 3 : : ; = * : ; 2 M +.Y 4 1 2 2 3 < = 2 M P 7 M M 2 M ! 2 8 3 3 2 2 3 7 h 7 ; 3 S _ 3 ; 2 3 3 3 4 f f 3 < ; 3 Y *.3 2 3 ; M ",
"7 3 h ; 7 2 7 ; = $ & 7 P 3 < 1 3 4 2 ; 3 7 f P < 3 _ 8 4 8 4 P 3 3 ; ; 3 M A M 3 ; M $.; = 3 3 4 4 4 4 f G 4 2 < Y 2.2 : 3 : 7 ",
"3 7 M 3 _ _ _ 3 & $ $ = ; ; < 3 3 M 3 2 M M 3 4 3 = 2 ; = M ! X.7 3 ; ; 2 M A h S ; ; 3 ; ; 2 ; 3 ,.2.4 1 G +.P 4 3 3 ; 2 7 = * ",
"3 h 3 7 2 M 3 : & 1 3 3 7 7 3 ; 2 M 7 3 P M 4 f P < < * = M } X.3 2 = = 2 7 7 3 _ M = % 2 2 = ; 1 +.s.2.f 4 f f C ; ; ; : 3 * * ",
"3 7 = 3 % 3 ; 3 1 C O.t f Y 7 = M } M 3 3 3 3 8 7 4 8 < < 4 3 e 2 ; = = ; 3 3 ; S u.7 % ; ; = 7 +.8 f 1.} 1 < P 4 & 2 3 ; * = 7 ",
"2 : 2 7 3 3 3 _ 6 f t 1 3 7 4 < +._ P 7 < 2 3 2 < 4 7 < 3 7 = 3 ; ; : : 2 3 3 : 7 6.S = $ ; 7 h Y 4 4 8 4 3 3 f 3 ; t 3 % % > S ",
"2 ; S $.0.3 7 S 3 3 3 t Y M 4 3 7 3 8 M 3 7 f < ; 2 ; * ! *.< 4 ; 2 3 3 7 7 7 3 7 7 7 = o 3 t.7 % f 2.f 3 P f ; t 1 C > O ; 7 h "
};
