/* XPM */
static char *e59b09ff82efb5cc46b7bdf38b4482a1[] = {
/* columns rows colors chars-per-pixel */
"64 64 229 2 ",
"   c #7F0F37",
".  c #85022F",
"X  c #830431",
"o  c #8C0635",
"O  c #840C36",
"+  c #8A0B38",
"@  c #940336",
"#  c #9B0337",
"$  c #960639",
"%  c #9C063A",
"&  c #950B3B",
"*  c #9C0B3C",
"=  c #8C143D",
"-  c #84193D",
";  c #93123E",
":  c #99103F",
">  c #B0072E",
",  c #B81B2D",
"<  c #A70535",
"1  c #AE0036",
"2  c #A6053C",
"3  c #AA033C",
"4  c #A30A3D",
"5  c #A8083F",
"6  c #B20036",
"7  c #B80236",
"8  c #B3033D",
"9  c #B9033D",
"0  c #B4093E",
"q  c #BD0B3D",
"w  c #A81635",
"e  c #BB1C34",
"r  c #BA1A39",
"t  c #9E2E39",
"y  c #B32436",
"u  c #C5172B",
"i  c #DC152D",
"p  c #C70A37",
"a  c #CA0D36",
"s  c #C1073D",
"d  c #C60A3A",
"f  c #CB0D3B",
"g  c #D70F33",
"h  c #DB0E33",
"j  c #D10F3B",
"k  c #C51531",
"l  c #CC1235",
"z  c #C51A35",
"x  c #CE103C",
"c  c #CC1A3B",
"v  c #D41335",
"b  c #DC1236",
"n  c #D41B34",
"m  c #DE1C35",
"M  c #D4123B",
"N  c #DC143A",
"B  c #D51C3D",
"V  c #DC1C3C",
"C  c #E7152E",
"Z  c #E41636",
"A  c #EA1734",
"S  c #E41B35",
"D  c #EA1A36",
"F  c #E11639",
"G  c #ED1739",
"H  c #E41A3A",
"J  c #EC1A3A",
"K  c #F11B3D",
"L  c #C4243C",
"P  c #CB243C",
"I  c #C52B3E",
"U  c #D52137",
"Y  c #E5243C",
"T  c #EC233D",
"R  c #EC263C",
"E  c #F2233D",
"W  c #9F0C40",
"Q  c #8C1C43",
"!  c #991643",
"~  c #AB0740",
"^  c #A60A41",
"/  c #AA0A42",
"(  c #B30641",
")  c #BA0641",
"_  c #B40A42",
"`  c #BD0942",
"'  c #A41144",
"]  c #B91444",
"[  c #8E2B4E",
"{  c #91254B",
"}  c #992C53",
"|  c #8B3050",
" . c #9B3155",
".. c #AE2D4A",
"X. c #B62B46",
"o. c #BC344C",
"O. c #A7395A",
"+. c #B53B53",
"@. c #A93E62",
"#. c #C40B42",
"$. c #C90E44",
"%. c #C50F49",
"&. c #CB1143",
"*. c #C91447",
"=. c #CC154B",
"-. c #D31643",
";. c #D51B43",
":. c #DA1A40",
">. c #D11749",
",. c #D21A4C",
"<. c #CF1D52",
"1. c #E61C41",
"2. c #ED1C40",
"3. c #F31E41",
"4. c #C92745",
"5. c #D52846",
"6. c #C13448",
"7. c #D53853",
"8. c #E52243",
"9. c #EC2443",
"0. c #EC2A42",
"q. c #E82C49",
"w. c #F32343",
"e. c #F22A44",
"r. c #F92948",
"t. c #E83047",
"y. c #ED334B",
"u. c #EB384E",
"i. c #F43147",
"p. c #F4334B",
"a. c #FB334D",
"s. c #F53A4D",
"d. c #EE3D52",
"f. c #F63D52",
"g. c #FC3C53",
"h. c #FD3854",
"j. c #CF3E71",
"k. c #A54A6A",
"l. c #BC4771",
"z. c #A75271",
"x. c #B65979",
"c. c #C84957",
"v. c #D34157",
"b. c #C9555F",
"n. c #EE4A5D",
"m. c #F54156",
"M. c #FB4355",
"N. c #FE4957",
"B. c #F4445A",
"V. c #FD445A",
"C. c #F24A5E",
"Z. c #FF4B5D",
"A. c #C84D66",
"S. c #DF4E67",
"D. c #D1586C",
"F. c #D2586E",
"G. c #D54578",
"H. c #C85A71",
"J. c #F54D62",
"K. c #FD4C63",
"L. c #FF4967",
"P. c #E05D6E",
"I. c #F55164",
"U. c #FB5265",
"Y. c #FE556A",
"T. c #FF5A75",
"R. c #D86278",
"E. c #F6667C",
"W. c #BE6484",
"Q. c #C75E84",
"!. c #DF5A89",
"~. c #E15A8A",
"^. c #CC6A8B",
"/. c #DF6D82",
"(. c #CA7291",
"). c #FF6D89",
"_. c #E57788",
"`. c #EC6B99",
"'. c #FF7B93",
"]. c #E67FA2",
"[. c #C9819B",
"{. c #E88996",
"}. c #F78898",
"|. c #D789A4",
" X c #E686A6",
".X c #FB82A7",
"XX c #E898AA",
"oX c #FA99A9",
"OX c #FE8BB4",
"+X c #E39DB6",
"@X c #FD9FB1",
"#X c #F7A3AC",
"$X c #E9A3BD",
"%X c #FFA3B2",
"&X c #F7ABBC",
"*X c #FFAABE",
"=X c #FF9FC4",
"-X c #F7ADC6",
";X c #F4AAC8",
":X c #FDB3CB",
">X c #FAB8C9",
",X c #FFB9D4",
"<X c #FFC3CC",
"1X c #FFC7D3",
"2X c #FEC3DA",
"3X c #FFD5DA",
"4X c #FFCCE7",
"5X c #FFD3E5",
"6X c #FFDAE5",
"7X c #FFD5EA",
"8X c #FFDBED",
"9X c #FFD3F1",
"0X c #FFDDF3",
"qX c #FFE7E9",
"wX c #FFE5EB",
"eX c #FFE3F4",
"rX c #F0EEF1",
"tX c #FFECF4",
"yX c #FFE4FA",
"uX c #FFECFB",
"iX c #F3F5F5",
"pX c #FFF3F5",
"aX c #FDFAF7",
"sX c #FFF4FC",
"dX c #F5FDFC",
"fX c #FEF9FD",
"gX c #FFF9FE",
"hX c #FAFEFF",
"jX c #FCFFFF",
/* pixels */
"jXjXjXjXjXjXjXjXjXgXgXuX7X:X'.T.L.T.).).oX2XeXtXgXdXhXdXgXgXgXgXjXjXhXhXhXhXdXgXuXuX4XOX`.G.j.G.!..X,XyXuXgXgXgXgXgXgXgXgXgXgXgX",
"jXjXjXjXjXjXjXjXgXsXuX@XF.6.5.5.V V B c P 6./.*XwXsXgXgXgXgXjXjXjXjXhXhXhXgXsXuX+Xx. .! & $ % % & + Q k.$X8XsXgXgXgXgXgXgXgXgXgX",
"jXjXjXjXjXjXjXgXuX*Xv.5.5.8.8.9.9.9.9.8.H V B 4.S.,XsXgXjXjXjXjXjXjXjXdXgXsX-Xl.& @ 2 / / ~ 2 2 % # $ & X  .:XyXgXgXjXgXgXgXgXgX",
"jXjXjXjXjXjXgXuX/.4.V w.3.3.3.J 2.3.2.K K K K J V 7.oXtXgXjXjXjXjXhXgXsXsXXX; / ( ) ( ) ( ~ ~ ~ ~ 2 2 2 / * O W.uXgXgXgXjXgXgXgX",
"jXjXjXjXjXgX5XA.5.8.w.3.3.K Z J J G J J K J J J H n 4._.tXgXjXhXhXrXgXuXQ.% _ ) ) 6 8 8 3 3 ~ / / / / / 2 2 % = z.yXsXgXgXjXgXgX",
"jXjXjXjXgX6XF.5.8.w.J J J 3.3.K K K K K K K K J Z m b L {.uXgXdXhXgXuXW.% < 9 ) ) 9 8 ) ) ( ( ( / / / / / / / W O x.uXsXsXjXgXgX",
"hXhXjXgX8XR.L q.9.J J J w.r.3.J G J J J J G J J J Z m B e }.gXjXjXuX^.* 8 %.%.%.%.%.%.%.` ) ) 3 3 3 5 / / / / / ' X (.uXgXgXgXjX",
"hXjXgXuX}.e y.J H 9.a.h.r.J J J K K K J J J J J J H H m n y >XgXgX-X* <.<.,.=.=.=.=.*.%.$.` 8 1 3 3 2 2 2 / / / / ' O |.sXgXgXgX",
"hXjXtX>X7.9.K J p.g.V.g.a.T J J J J J J J J J J J H H H H k D.0X5XO.] ,.>.,.,.=.=.=.&.&.$.$.*.%.1 1 3 < 2 2 / / / ' $ { 2XsXsXgX",
"hXpXwXF.n r.K w.f.m.V.V.h.e.J D G J J J J G J J H H H H H v r .X'.w 4.;.-.-.-.&.&.&.&.&.&.&.&.&.6 1 3 2 2 2 / / ^ / / o x.sXgXgX",
"hXwX%XP 9.K w.h.V.V.M.g.h.a.E J A G J J J J J H H H Z H H N l 5.c ;.;.;.-.-.-.M &.&.&.&.&.&.&.&.$.1 3 2 2 2 ~ / / / / *   ,XgXgX",
"aXtXS.H 3.3.e.V.K.V.V.g.h.a.w.J D A J J J J J H H Z H F F b g N M :.;.;.-.N M j f x x x x x &.&.&.8 3 3 2 2 2 ^ ^ / / % ! Q.sXgX",
"pX<X5.K r.w.V.V.L.V.m.g.h.a.w.J D G J J J J J J H Z F F F b g b N :.B M N M j j x x x x x x x x &.$.3 3 2 2 2 ~ ^ / / 2 % Q 7XuX",
"tX{.B r.K a.L.B.K.V.m.f.a.i.w.K J G J J J J J H H H F F F F b b N :.B M M j j j j x x x x x x x &.&.9 3 2 2 2 2 / / / / 2 o |.uX",
"eXF.q.K w.h.L.B.V.V.m.s.e.w.E J J J J J J J J H H H H F F N F N N :.N N M j j j j x x x x x x x x &.$.3 3 2 2 2 / ^ ^ / / o z.yX",
"<X6.y.w.Y L.K.C.B.B.m.s.0.T J K J J J J J J H H H H H F m N N N N N M M j j j j M x x f f f x x x $.$.` 3 2 2 2 2 ^ ^ / / & [ 9X",
"@XI 9.H u.Y.J.C.B.B.m.p.R J J T J J J G J J H H H H H N N N N N N N M M M M M j x x f f f f f f d $.$.` 3 2 2 2 2 / / / / % Q :X",
"'.P 9.S u.Y.J.C.B.C.m.y.R D J J J J J H H H H H F F N m N N N N M N M M M M M j x f f f f f f f d d $.` 3 2 3 2 2 / / / / % & OX",
"Y.U R S u.Y.J.C.C.C.m.y.T D J J J J J H H H H F F N m N N N N N N M M M M M M M x f f f f f f f d d $.` 3 2 3 2 2 ~ / / ~ 2 @ `.",
"g.m R S u.Y.J.C.n.J.m.t.T D D J J J H H H H F F F N N N N N N N N M M M M M M M x f f f f f f f d f #.` 3 2 3 2 2 ~ / / ~ 2 @ G.",
"g.S R S u.Y.J.C.C.J.m.0.J D D J D H H H H H F F N N N N N N N N M M M M M M M j x f f f f f f f f d $.` 3 2 3 2 2 ~ / / / 2 # G.",
"V.S R S u.Y.J.C.C.K.m.0.D G D D H H H H H Z F F N N N N N N N N N M M M M M M M f f f f f f f f f d $.` 3 2 3 2 2 2 / / / 2 @ G.",
"V.S E H u.Y.J.C.C.J.m.0.D A D D D H H H H F F F F N N N N N N N M M M M M M M x f f f f f f f d d f #.` 3 2 3 2 2 2 / / / ^ @ G.",
"g.m R Y u.Y.J.C.n.K.m.0.D A D D H H H H F F F F N N N N N N N N M M M M M M x f f f f f f f d d d f #.` 3 2 2 2 2 2 / / / ^ $ j.",
"K.n 0.Y y.C.C.n.J.I.B.0.T D D A D H H F Z F F F N N N N N N N M M M M M M j x f f f f f f d d d d d #.` 3 2 2 2 2 2 / / / ^ $ ~.",
"T.n 0.Y t.U.I.I.C.K.B.i.E D D A Z H F F F F F N N N N N N N M M M M M M M M f f f f f f d d p d d d #.) 3 2 2 2 2 2 / / / ^ & `.",
"'.P Y T t.Y.Y.I.d.f.p.0.T D D D Z Z F F F F F N N N N N N M M M M M M M M x f f f f f d d d d d d d #.) 3 3 2 2 2 ^ / / / % + OX",
"%XI Y R Y V.B.B.0.0.T D D A A D Z Z F F F N N N N N N N M M M M M M M M x f f f f f f d d d d d p d #.9 3 3 2 2 2 ^ / / / * O =X",
"<X6.U E J e.0.T D A C C A A A J D Z F F F N N N N N N N M M M M M M M j x f f f f f d d d d d d d d #.8 3 3 2 2 2 2 / / / $ { 9X",
"6Xb.n E A D D S C A A D T J D D H Z F F F N N N b N N M M M M M M M M j f f f f f f d d d d d d d s #.6 3 3 2 2 2 2 / / / @ z.0X",
"tX_.z E Z D D S S T 0.i.s.0.D Z Z Z F F F N N N b N N N M M M M M M M j f f f f f f d d d d d d d d ` 6 3 3 2 2 2 2 ^ / / o [.uX",
"pXoXz E A E R T Y 0.s.m.V.p.T Z Z Z F F N N N N N N N N M M M M M M M M f f f f f f d d d d d d d #.` 3 3 3 2 2 2 2 ^ / / O ;XsX",
"aX<XI T T D R s.M.N.N.f.m.f.e.H Z Z F F N N N N N N N M M M M M M M M x f f f f f f d d d d d d d ` ` 8 3 2 2 2 2 / / ^ $ } 8XgX",
"aXwXE.U Y S R M.Z.N.M.M.M.s.i.e.Z F F F N N N N N N M M M M M M M M x f f f f f f d d d d d d d q ` _ 3 3 2 2 2 2 / / ^ . ^.sXsX",
"aXpX%XL U S Y p.U.N.m.N.M.s.i.a.Z F F N N N N N N N M M M M M M M x x f f f f f f d d d d d d d q 0 0 3 3 2 2 2 2 / / $ = :XgXsX",
"jXaX3Xc.U T S i Z.N.M.N.N.s.p.p.Z F N N N N N N N M M M M M M M x x x f f f f f d d d d d d d #.` 0 0 3 3 2 < < 2 / / o k.uXuXsX",
"jXaXpX{.z T S i i.f.N.N.M.f.i.Y H F N N N N N N N M M M M M M M x x x f f f f f d d d d d d #.` _ ( 3 2 3 3 < 2 5 / 2 X +XgXgXgX",
"jXaXgX3Xv.n S S S p.N.M.s.s.0.H F F N N N N N N M M M M M M M x x f f f f f f d d d d d d d #.` 0 ( 3 2 3 3 2 < / / @ O.eXgXgXjX",
"jXaXaXpX}.e Y S Z T p.s.i.9.H H F F N N N N N M M M M M M M M x x f f f f f f d d d d d d d #.) 8 / 3 3 3 2 2 2 5 % =  XsXgXjXjX",
"jXjXaXpX6Xc.U i Z H 9.i.9.H m H F N N N N N N M M M M M M M x x f f f f f f d d d d d d d d ` 8 3 3 2 3 3 2 2 < ^ o | yXgXjXjXjX",
"jXjXgXpXwX#X, H H H H 8.H m b H H N N N N N N M M M M M M M M M f f f f f f d d d p d d d #.9 8 3 2 2 < 2 2 2 2 % Q -XgXjXjXjXjX",
"jXjXjXaXpXwXP.k 8.F N N F F N F N N N N N N M M M M M M M M M f f f f f f d d d d d d d #.q 8 3 2 2 2 < 2 < 2 4 + W.sXjXjXjXjXjX",
"jXjXjXjXjXpX1Xo.c F H N F H H N N N N N N M M M M M M M M x M f f f f f d d d d d d d d #.) 3 3 2 2 2 2 2 2 2 ' [ 5XgXjXjXjXjXjX",
"jXjXjXjXjXpXpXoXr N V H F b 1.F N N N N N M M M M M M M x x f f f f f d d d d d p d d #.` 8 3 < 2 2 2 2 2 4 4 = -XgXgXjXjXjXjXjX",
"jXjXjXjXjXpXpX6XR.r M 1.H h F F F N N N M M M M M M M M x x f f f f f d d d d d p d d #.) 3 3 2 2 < 2 < 2 4 . (.sXgXjXjXjXjXjXjX",
"jXjXjXjXjXjXpXsXeXA.> H H F h F N N N M M M M M M x M x x f f f f f f d d d d d d d #.` 8 3 3 2 < < 2 2 4 o x.0XgXjXjXjXjXjXjXjX",
"jXjXjXjXjXjXjXpXgX4Xo.B N H h h b N N M M M M M M M M x x f f f f f d d d d d d d d #.) 3 3 3 2 2 < < 4 * O.eXsXjXjXjXjXjXjXjXjX",
"jXjXjXjXjXjXjXjXhXgX-Xo.c N F h h N N M M M M M M M x x f f f f f f d d d d d d d #.` ( 3 2 2 2 < 4 4 * { 2XgXjXjXjXjXjXjXjXjXjX",
"jXjXjXjXjXjXjXjXjXgXgX-Xo.c N h h g N M M M M M M M x x f f f f f d f d d d d d #.` ( 3 2 2 2 2 2 4 & - 2XgXgXjXjXjXjXjXjXjXjXjX",
"jXjXjXjXjXjXjXjXjXjXdXgX*XX.c v b h b N M M M M M M x x a f a f d d d p p d d #.` 8 3 3 2 2 2 2 4 : Q :XgXjXjXjXjXjXjXjXjXjXjXjX",
"jXjXjXjXjXjXjXjXjXjXjXgXsX&XX.l v b b g v M M M M x f f a a a a d d d p d d s ` 8 3 3 2 2 2 2 4 & Q >XtXgXjXjXjXjXjXjXjXjXjXjXjX",
"jXjXjXjXjXjXjXjXjXjXjXgXdXuX%XX.z l v v v v M M M x x a a a a a p p p d d s ` 8 3 3 2 2 2 5 4 : - :XtXgXjXjXjXjXjXjXjXjXjXjXjXjX",
"jXjXjXjXjXjXjXjXjXjXjXjXgXpXpX&X..r l v v v v M M x l a a a a a p p d d d q 8 3 3 2 2 2 / 4 &  .2XtXsXjXjXjXjXjXjXjXjXjXjXjXjXjX",
"jXjXjXjXjXjXjXjXjXjXjXjXjXjXiXsX:X+.r c v v v v l l a a a a a p p d d d s 9 3 3 2 2 2 5 4 & @.2XtXgXjXjXjXjXjXjXjXjXjXjXjXjXjXjX",
"jXjXjXjXjXjXjXjXjXjXjXjXjXjXjXpXgX6XH.w z l l v M l a l a a a p d d d s 9 6 3 2 2 < 2 4 * x.eXuXgXjXjXjXjXjXjXjXjXjXjXjXjXjXjXjX",
"jXjXjXjXjXjXjXjXjXjXjXjXjXjXjXgXdXgX6X_.X.e z l l l a a a a p p p s s 9 6 6 3 2 2 4 * ; ].yXuXgXgXjXjXjXjXjXjXjXjXjXjXjXjXjXjXjX",
"jXjXjXjXjXjXjXjXjXjXjXjXjXjXjXjXhXgXpXwX#Xt , u k l l l p p p p d q 7 6 1 3 8 ~ 4 ; | -XuXgXgXgXjXjXjXjXjXjXjXjXjXjXjXjXjXjXjXjX",
"jXjXjXjXjXjXjXjXjXjXjXjXjXjXjXjXjXjXaXpXpX1Xb.y , z c x x d p d q 7 6 1 8 _ _ ^ ; x.7XuXgXjXjXjXjXjXjXjXjXjXjXjXjXjXjXjXjXjXjXjX",
"jXjXjXjXjXjXjXjXjXjXjXjXjXjXjXjXjXjXjXaXaXaXwXXX+.w z x x &.d d 0 1 0 _ _ / ' Q +XuXtXpXgXjXjXjXjXjXjXjXjXjXjXjXjXjXjXjXjXjXjXjX",
"jXjXjXjXjXjXjXjXjXjXjXjXjXjXjXjXjXjXjXaXaXaXpXtX>XH.w w q #.$.$.1 < < 4 * ; ^.4XuXtXpXgXgXgXjXjXjXjXjXjXjXjXjXjXjXjXjXjXjXjXjXjX",
"jXjXjXjXjXjXjXjXjXjXjXjXjXjXjXjXjXjXaXaXaXaXaXpXpXsX&XO.4 ` 7 $.] # * = k.>XsXtXtXpXgXgXjXgXjXjXjXjXjXjXjXjXjXjXjXjXjXjXjXjXjXjX",
"jXjXjXjXjXjXjXjXjXjXjXjXjXjXjXjXjXjXaXaXjXaXjXaXaXgXgXuX X! < < & =  .|.uXgXpXgXgXgXjXjXgXjXjXjXjXjXjXjXjXjXjXjXjXjXjXjXjXjXjXjX",
"jXjXjXjXjXjXjXjXjXjXjXjXjXjXjXjXjXjXjXaXjXjXjXjXjXjXjXtXsX0X(.[ | [.eXgXgXgXgXjXjXjXjXjXjXjXjXjXjXjXjXjXjXjXjXjXjXjXjXjXjXjXjXjX",
"jXjXjXjXjXjXjXjXjXjXjXjXjXjXjXjXjXjXjXjXjXjXjXjXhXhXdXaXaXsXuX4X7XsXgXrXhXhXjXjXjXjXjXjXjXjXjXjXjXjXjXjXjXjXjXjXjXjXjXjXjXjXjXjX"
};
