/* XPM */
static char *_cb958f5bb674696bbd171aa918b58b4nCwaiyEycLZ9vmZD[] = {
/* columns rows colors chars-per-pixel */
"64 64 256 2 ",
"   c #010403",
".  c #010A04",
"X  c #090A06",
"o  c #04040A",
"O  c #0A050C",
"+  c #020B0B",
"@  c #0A0C0C",
"#  c #090404",
"$  c #110B0D",
"%  c #011402",
"&  c #04110E",
"*  c #0B110C",
"=  c #091B0A",
"-  c #040D12",
";  c #0C0D12",
":  c #090815",
">  c #120D12",
",  c #041212",
"<  c #0B1314",
"1  c #0B1719",
"2  c #121617",
"3  c #12110D",
"4  c #0A2518",
"5  c #181A21",
"6  c #071329",
"7  c #211D24",
"8  c #0D2825",
"9  c #162926",
"0  c #19342B",
"q  c #1A3736",
"w  c #0C2F31",
"e  c #2C2B2C",
"r  c #272627",
"t  c #253629",
"y  c #322E35",
"u  c #233533",
"i  c #253A36",
"p  c #37353A",
"a  c #2E2D31",
"s  c #28433A",
"d  c #364B39",
"f  c #385336",
"g  c #1C4236",
"h  c #6E6714",
"j  c #414A3D",
"k  c #5D6F35",
"l  c #031657",
"z  c #000F43",
"x  c #3C3942",
"c  c #253D42",
"v  c #0B1B66",
"b  c #19315F",
"n  c #423C44",
"m  c #2B4944",
"M  c #384A47",
"N  c #38554C",
"B  c #3B5C53",
"V  c #395854",
"C  c #2A544D",
"Z  c #3A6655",
"A  c #356C52",
"S  c #324B75",
"D  c #3C6B65",
"F  c #387269",
"G  c #48484A",
"H  c #455948",
"J  c #465B56",
"K  c #555A57",
"L  c #554749",
"P  c #714B4F",
"I  c #456559",
"U  c #566658",
"Y  c #47745C",
"T  c #59775C",
"R  c #4C6A4C",
"E  c #6C7353",
"W  c #476B64",
"Q  c #556D6A",
"!  c #556B67",
"~  c #4D796B",
"^  c #4A7666",
"/  c #547C6B",
"(  c #587967",
")  c #4C7A73",
"_  c #537C73",
"`  c #587C76",
"'  c #5A6F70",
"]  c #647766",
"[  c #637C78",
"{  c #6E7672",
"}  c #943F51",
"|  c #904857",
" . c #A8465D",
".. c #925565",
"X. c #98656F",
"o. c #3E8D65",
"O. c #778B55",
"+. c #738B52",
"@. c #57846D",
"#. c #4D8576",
"$. c #5B8473",
"%. c #5C8A75",
"&. c #5B857B",
"*. c #5C8B7A",
"=. c #558577",
"-. c #518F70",
";. c #688767",
":. c #7B9568",
">. c #64857C",
",. c #638C7C",
"<. c #668876",
"1. c #68957C",
"2. c #79997B",
"3. c #728B6E",
"4. c #4EAA72",
"5. c #6BA473",
"6. c #5C9255",
"7. c #7ACF72",
"8. c #AB9838",
"9. c #A19C3C",
"0. c #89904E",
"q. c #A89A42",
"w. c #849D78",
"e. c #88946F",
"r. c #88A37A",
"t. c #94A26B",
"y. c #B2A44C",
"u. c #D1CC74",
"i. c #E7CB66",
"p. c #DEC15C",
"a. c #AEC66C",
"s. c #567B87",
"d. c #707E94",
"f. c #304284",
"g. c #5A8784",
"h. c #59978B",
"j. c #51908E",
"k. c #668A85",
"l. c #758A86",
"z. c #6B9483",
"x. c #6D9A83",
"c. c #6C948B",
"v. c #6D9B8C",
"b. c #659385",
"n. c #729C85",
"m. c #739C8C",
"M. c #7A9D8D",
"N. c #799787",
"B. c #6C9B93",
"V. c #699594",
"C. c #749C93",
"Z. c #7C9C93",
"A. c #7C9D9B",
"S. c #759896",
"D. c #698D94",
"F. c #6CA58A",
"G. c #75A38C",
"H. c #7BA38D",
"J. c #78A585",
"K. c #74A293",
"L. c #7BA494",
"P. c #7DAA95",
"I. c #75A49B",
"U. c #7CA49B",
"Y. c #7CAA9B",
"T. c #75AA9A",
"R. c #6CAC95",
"E. c #7496A8",
"W. c #7CA4A2",
"Q. c #7AA8A5",
"!. c #76B3AF",
"~. c #76C4BC",
"^. c #73DD8B",
"/. c #849D87",
"(. c #839C97",
"). c #958F8C",
"_. c #85A688",
"`. c #82A394",
"'. c #83AB94",
"]. c #83A49B",
"[. c #8AA49C",
"{. c #84AB9B",
"}. c #8BAB98",
"|. c #95AB97",
" X c #8AB399",
".X c #93B394",
"XX c #95B59B",
"oX c #9BBA9C",
"OX c #99B699",
"+X c #8EB28E",
"@X c #A0AE9B",
"#X c #83A5A2",
"$X c #87AAA3",
"%X c #95A8A5",
"&X c #88B3A4",
"*X c #99BCA3",
"=X c #86A4BE",
"-X c #A2BCA4",
";X c #B2B2B2",
":X c #8F9EA8",
">X c #C3BDBF",
",X c #8DD08E",
"<X c #B9CD92",
"1X c #9DC3A4",
"2X c #99C3AA",
"3X c #97C6B4",
"4X c #A3C3A5",
"5X c #A5C6AA",
"6X c #ABCBAC",
"7X c #A7C8A9",
"8X c #AACCB3",
"9X c #B5C9B6",
"0X c #AED3B4",
"qX c #B2D2B3",
"wX c #B6D6BA",
"eX c #B2CFAA",
"rX c #9DE3A9",
"tX c #C9D388",
"yX c #CBD28D",
"uX c #C5D6AE",
"iX c #8CA6C6",
"pX c #849EC1",
"aX c #BBDCC3",
"sX c #BACCC0",
"dX c #BEE5C6",
"fX c #C9D2C9",
"gX c #CCEBCD",
"hX c #C5E6C9",
"jX c #CCECD2",
"kX c #C4ECD1",
"lX c #D3EED4",
"zX c #D8EED9",
"xX c #CCF2D4",
"cX c #CBF6DA",
"vX c #D3F4D5",
"bX c #D3F5DA",
"nX c #DBF5DB",
"mX c #D5FADB",
"MX c #DBFCDC",
"NX c #D6F8D6",
"BX c #CEF0CE",
"VX c #E1F9DD",
"CX c #D3FCE2",
"ZX c #DBFDE3",
"AX c #DAFCE7",
"SX c #D0F1E1",
"DX c #E1FDE4",
"FX c #E3FFEB",
"GX c #EBFEEB",
"HX c #E7F6E9",
"JX c #F0FFEE",
"KX c #EBFBF0",
"LX c #FEFDFC",
"PX c #F8F6F6",
"IX c #E9E8E7",
"UX c #E0DEE1",
/* pixels */
"fX;X9XfX{ y p p p p M p p n p p G p p p y p n p y p n n p p y n p p p p x n x y n n x n n p n n y p p x y y p x y n p ;XfX;XfX).",
"PXLXPXLX{   @ .     o     @ o o @ o o o   O @   o   O o o o o O o o o o O O O O O o o O O o O o o o o o o o o o o o 5 UXPXLXLX;X",
"UXLXPXLX3.  @ * < + < & & < @ < @ < < < < < < + & < * < < < < < < < < < - ; ; 1 + - - - - < - @ 1 @ - < 1 < - - 5   5 PXPXLXLX@X",
"LXLXPXKX{ 2 + + +   + . . +   +   . +   + . .     .   .     + . . .   +   .   .     .     + . .         ,   o o o   a UXPXLXLX;X",
"G G K K p U H J J s J I I J s J J I J s I B J B m I I I N m I I J N m I I I M N I B I N M I J I M d J J I M J J J J M K K G G j ",
"    @ . t %X(.[.(.<.].[.[.`.<.`.].{.L.$.{.L.{.L.<.{.{.{.m.,.{.{.{.m.$.$X{.&Xz.k.#X].$Xk.k.$X].}.z.z.$X].[.>.Z.#X%X%X!         e ",
"< @ 2 . u %X[.`.Z.( M.L.L.M.( H.L.L.n.^ '.H.L.n./ P.L.L.1.@.P.L.P.z.~ P.L.{.*.*.Y.K.{.%.$.{.m.`.<.<.{.M.].` m.].N.$XQ < 2 2 X e ",
"  < < & 0 Z.].m.m.Y x.m.m.x.Y G.x.n.,.Z H.x.n.,.Y m.x.n.$.^ n.x.m.%.Y m.z.H./ @.G.x.L./ / H.z.n.( / G.z.L.~ z.C.].[.J ,   2   r ",
"  o +   9 >./ ^ / Z P.L.H.H.I H.H.'.H.I  XH.}.1.( '.n.H.n.Y }.n.'.,.(  XH.`.<.<.L.n. X<.@.{.H.H.@.@.H.n.{.$.B *.~ >.J   @ @   r ",
"< < < & u (.L.P.L.G.cXCXAXCX2XmXxXmXxXXXZXbXAXjX1XZXAXAXkX*XAXAXFXaX*XZXAXFXaX8XFXbXFX0X8XAXCXAX0XaXAXmXCX3Xb.{.L.{.' + < 2 ; a ",
": o + . 0 Z.].{.1.1.cXCXmXxX XjXbXMXxXXXZXbXAXjXXXmXZXZXdX+XmXZXAX0XXXbXCXDXwX1XFXbXDX0X8XAXZXDX1X0XmXcXCX2X%.m.L.[.!   + o o r ",
"; ; 1 , u Z.m.m.x.z.kXcXkXdX+XhXgXjXhX_.jXhXxXwXXXgXhXgXaX.XvXhXjX8X*XvXjXjX5X4XjXaXbX7X*XxXjXjXoX4XxXdXcX2X,.P.z.L.Q + 1 2 > a ",
"o o o   8 >.$.@.^ Z *X2X1X1X;.7X4X7X*X;.7X4X7X.X3.4XoX4XOX3.7XoX-X_.2.6X-X4X/.N.5XOX8X/.2.6X-X4X2._.7X1X2X1.Z @./ k.J   . o   7 ",
"2 2 1 , u Z.Z.L.G.1.kXxXvXgX.XBXvXNXgX.XMXMXDXhXoXNXNXbXhX.XNXvXMXwXoXmXbXMXqX7XDXvXDXqX7XMXvXMX6XeXNXBXbX1X<.P.M.[.( . < 2 > y ",
": : - o 0 Z.U.P.G.n.cXmXbXlX.XlXNXvXhX+XNXxXMXdXoXMXMXMXhX.XMXMXDXwXoXmXmXZXwX7XMXgXMX7X4XmXNXMX4XeXMXvXMX2X,.P.M.].!   o @ O e ",
": : ; + u Z.L.L.1.1.xXbXlXgXOXnXGXDXvX.XbXvXmXhXOXxXxXvXdX+XvXgXvXqXoXxXhXvX6X7XMXgXDXqX8XDXDXGX7XeXNXBXmX1X%.H.m.].Q . < ; @ a ",
"o ; 1 + 9 <.@.~ %.Z *X1X*X9XT j H T d T 5X-X5X*X<.8X6X1X.X3.7X7X4X.X2.eX4XoX_._.oXoX6X|.f U H K d .X6X7X*XG.I %./ k.J   < : o e ",
"  + & . 0 `.{.P.z.<.cXDXDXDXR     .   U FXKXZXhXXXZXhXjXhXOXMXhXnXwX@XnXnXVXwXeXGXnXDX9X  o     % 6XxXmXAX3X,.P.Z.[.Q . , ; : y ",
"; < < . 9 m.m.m.P.1.kXhXjXVXU . 9 =   U FXDXbXdX XAXbXZXhX_.DXzXGX9XOXnXVXVX6XoXMXjXGXhX  @ 2 2 % gXmXxXAX&X%.{.L.[.Q   + o o a ",
"o @ < & i ].P.L.,.,.cXZXZXnXH .   . = U nXlXjXjX5XZXDXFXhXOXDXDXJXuX6XGXVXVXqXwXvXhXZX9X  . .   % qXbXxXAX2X@.L.c.U.Q + 1 < ; y ",
"@ ; ,   4 <.~ Y / I *XXX.XoXR U T ] ] T 8XXXXXXXH d f d d t f d j t t H f N d 2.XX}.5X/.H ] ] ] H 2.1X'. X,.B ,./ >.V   o     7 ",
"  + @ + i [.{.P.m.1.cXCXmXnX7XDXJXJXlX|.nXjXnXnXt . %   . . . .       % . % = _.ZXmXZXwXhXKXGXJXqX6XGXDXAX8X%.m.C.[.Q + < ; ; y ",
"@ @ & . 0 Z.L.G.m.x.cXCXbXgX.XlXNXNXgXXXGXMXMXlXf % = = = . = = * 2 & & . % = 6XDXZXvX8X8XZXlXnX6X4XxXxXcX*Xx.{.L.{.Q . - o O y ",
"  o + . u `.`.m.x.1.kXxXvXjX.XhXvXgXhX_.NXgXlXlXd . . . %   *     *   . . % . XXjXvXjXaX*XCXjXnXoXqXxXmXAX{.,.m.m.].Q . , - @ y ",
"    + + 0 >./ ( $.I *X*X4X7X;.oX1X4X.XT 6X-X4X.XH 3.] ] ] H 3.] { ! K l.] ] ( 3.7X1X7XJ.1.8XOX8X3.2.7X1X8Xn.Z $./ >.J   , o o r ",
"@ o & & i (.`.].Z.z.SXCXZXMX.XxXNXmXgX.XDXNXMXgX9XGXGXJXzX-XGXGXKXfX9XKXHXFXaXwXMXmXZXwX5XDXxXZX7XqXZXbXAX3X1.{.L.[.Q + 1 < ; y ",
"        0 Z.].{.m.1.SXCXmXmX.XvXNXmXgX+XDXNXMXgX.XzXnXnXfX|.zXnXHXsX-XZXDXFXqXoXMXNXMXwX5XAXxXZX7XqXZXbXAX2X%.L.L.[.!   + + o e ",
"@ * < & i (.Z.m.L.z.cXxXkXxX+XxXxXcXdX+XMXjXvXhXoXlXlXzXhXOXnXlXSX9X-XnXzXNXqX7XvXxXNXqX1XZXgXmX4X6XmXxXCX2X,.P.c.Z.Q + 1 1 ; y ",
"    .   9 l.>.` _ I 2X*X1X1X;.1X1X2X XT 6X1X4XXX3.-XoX4X.X;.7X*X*X/.3.4XOXoX2.2.4X1X7XJ.1.8XoX6X3.2.5X*X5X1.B / ` k.J   + o   7 ",
"* * < + u (.(.A.L.z.cXcXcXmX+XBXcXmXdX XZXvXbXhXOXNXMXMXhX.XmXmXMXwX4XMXMXMXqX7XNXvXNXqX4XZXxXZX7XqXmXjXmX2X,.{.Z.[.Q + 1 < ; y ",
"  X +   0 (.[.].m.k.SXCXmXmX+XBXcXCXkX XAXbXmXgX.XNXMXMXaX+XNXNXMXqX.XvXvXMX6XoXMXNXNXqX4XZXxXDX7XqXMXcXCX2X%.L.L.].!   + o o e ",
"X * * . u (.(.Z.m.z.CXCXcXxX+XcXcXCXkX XAXbXmXkX1XmXmXmXdXXXmXcXDXwX*XNXNXMXwX6XMXNXmX0X4XAXcXDX5X0XAXmXAX3X%.K.m.].Q . < ; @ a ",
"o o @   9 [ ( W / Z z.n.z.z.Y n.1.1.1.Y x.x.G.1.~ G.%.x.*.Y G.x.z.$.^ n.G.x.@.@.1.F.J.@.@.2.n.2.( / L.x.x.^ Y ,.^ ` J   - o o 5 ",
"o o o . u (.[.].[./ m.n.n.n.~ m.F.F.1.Y G.G.P.b./ Y.v.T.b.~ T.K.I.k._ K.P.G.%.@.F.F.F.$.$.L.(.M.&.$.L.m.Y.b.>.{.L.].Q + & @ ; a ",
"; ; ;   0 N.Z.Z.m.( C.P.P.m./ n.L.G.x.^ L.L.P.x.^ K.m.L.,.^ C.m.P.<./ G.K.T.1.*.Y.T.I.k.k.#X#XA.k.k.I.v.Y.b.>.U.{.[.!       X e ",
"o o ; , i (.].`.c.` U.&X$XC.$.U.].].Z./ {.`.{.H.$.{.{.$Xm.<.].].$X,.,.P.F.G.*.*.I.B.W.E.d.pXiXiXs.B.W.B.U.&.&.C.C.Z.! + < 2 2 p ",
"@ @ @   9 [ ' ! >.C C C N m q B C V V 0 B m N N 0 N N B N s V N N s Z ,./ %.Y ^ g.s.s.s.b S f.S q ) k._ k.W W k.` >.J   . o   r ",
"    @ . i (.#X$X].C w w g q 8 q q q c 1 s 9 i 0 4 0 0 0 0 8 q 0 0 4 Y '.n.P.,.g.Q.Q.E.d.l v l l w g.W.V.W.&.k.W.U.[.' , < < 3 e ",
"@ X +   0 Z.Z.Z.$XZ w q m s 8 q q c m 8 m 0 i 0 0 s s s i u c i q 8 / &Xm.P.$./ I.E.E.d.l v v v w k.Q.S.$Xg.k.W.U.].Q . .     r ",
"X X @ + u (.A.U.I.V w 0 q 8 8 q w q q 1 m 0 0 9 4 0 0 9 9 8 q q q 4 W Y.x.{.1.,.$XW.E.D.z l l l 6 k.Q.V.Q.g.k.A.S.Z.! + @ @ @ e ",
"  X @ . 9 k.` ) =.C Z B B B q J V V V i N B m B g Z B B V q W V W V C >./ %.Y Y &.g.k.S S S S S C D g.s.g.D ) g.` k.J   & @   r ",
"    +   u Z.U.U.W.=.C.U.[.].>.[.[.[.`.>.{.{.H.P.*.{.L.U.K.` $XA.W.D.&.&XC.P.%.%.C.C.$XD.D.=XpXiXs.D.Q.W.W.g.D.W.U.#XQ   @ @ X e ",
"3 @ @   9 N.S.C.C.~ m.U.].M.( /._.2.2.T H.L.m.v.@.I.K.K.B.~ U.C.Q.D._ U.v.L.%.$.L.m.U.g.g.A.S.E.g.D.W.B.C.&.k.C.].$XQ         r ",
"  X < , i [.#XW.W.=.L.{.`.N.( /.r.r.r.T J.H.L.K.=.T.I.I.K._ $XI.$XV.) W.K.&Xz.1.{.K.Y.,.k.#XI.#Xk.c.U.C.U.k.c.#XC.[.' & 2 2 3 y ",
"X X +   8 ` ) ^ _ C ^ ( ( T j :.O.O.:.f T ( @._ C =.) #.~ C %.@.=.D C =.~ *.Z A =.^ @.Z Z $./ $.V Z ) ) =.Z W ` ~ >.J   @ +   2 ",
"    + . u A.U.U.I.~ n.H._.w.:.eX<X<XyX+._.2.L.C._ Q.I.I.B.^ P.G.Y.b.#.Y.I.&Xb.*.&XI.P.*.%.G.x.G.&.b.Y.Y.$X&.k.U.c.].Q + 2 2 ; e ",
"3 @ @ . 0 S.C.C.Y.@.G.'._.w.:.uXtXtXyXE r.2.L.c._ W.W.I.v.^ P.G.F.*.^ T.B.Q.g.g.I.B.T.*.*.P.G. X=.,.L.L.U.@.&.L.Z.].Q   @ @ o e ",
"    @ + u ].].Y.m.Y 2.r.w.e.O.tXu.u.u.k t.w._.1./ I.I.I.v.~ {.K.T.h.#.T.B.Q.g.g.Q.B.T.%.-.J.5.J.@.*.K.I.P.@.,.{.Z.#XQ   @ @ X e ",
"X @ @   8 >./ ( R f :.+.0.9.h 8.8.8.8.h q.0.O.:.R ( @.@.~ B &.) #.F A h.j.j.j.F #.o.-.A o.6.6.6.o.A -.@.*.D D k.) k.J   1 ;   r ",
"$ 3 2 * i (.Z._.2.:.<XtXu.u.8.i.i.i.i.8.u.tX<X<X+.2.H.G.c._ W.V.Q.h.h.3X!.!.!.j.R.R.R.-.5.7.7.,X5.-.F.F.T.g.g.W.A.#XQ + < @ X e ",
"# # X . u (.`.`.3.;.<XtXtXu.8.p.p.p.p.8.u.yX<X<X;.J.'.P.m.` #XC.R.h.j.~.~.!.!.j.Q.L.H.;.5.,X7.,X5.1.T.R.Y.g.g.W.#X$XQ   o     r ",
"> > 2 @ u (.(.M.N.3.<XyXyXu.q.u.i.i.i.q.tXyX<XeX;.N.L.L.c._ U.B.Q.h.j.~.~.!.Q.` %X).).3.5.,X^.^.4.-.R.F.T.*.&.W.A.#X' , 1 < @ a ",
"# o     9 k.>.[ ( H :.e.0.0.h y.8.y.y.h 0.0.O.3.R / *.&.~ V >.` g.) F h.j.V.[ L ..| ..P E 5.o.4.A A %.#.*.D D g.` k.J   + .   2 ",
"> > 2 - i (.Z.m.M.T w.w.t.t.+.tXu.u.u.k t.e.w.N./ v.I.C.b.~ L.C.A.k.) I.B.S.d.P  . . .| E _.4.4.-.-.K.v.K.*.g.W.S.].Q + 1 < @ e ",
"o o o o u (.A.Z.Z.( N.w.w.e.O.yXtXtXtX+.t.r./.M.=.C.Q.I.c._ Y.K.$XS.g.Q.U.$X).P  . . .| X.XXR.R.-.%.Y.G.I.k.k.#XA.#XQ . & + . e ",
"@ o + . q (.].U.Z.^ M._._._.3.uXyXyX<X+.r._.`.L.&.B.Q.Q.c.#.Y.K.W.D.` Q.I.[.).P ..|  .| X.|.F.R.-.,.Y.C.I.k.k.#XA.[.Q . & & o e ",
". + + , 8 c.W _ &.C ^ / ( ( f 3.+.+.O.f ;.( ,.) C g.) #.^ A =.^ ) F A #.D $.J L P P ..L G [ ~ #.D Z / W >.B W ` ` Q J ,   * o r ",
". , , & 0 #XS.W.C.^ c.m.m.x.( _.r.e.:.R 2.z.K.k.) W.B.I.g._ K.v.Q.h.#.!.K.{.<.3.@X).@X3.>.#XC.Q.&.,.].m.#X` c.(.(.[.!     <   r ",
"1 4 &   8 ].U.I.I.=.L.].].Z.` H._.r.2.( `.P.$XB.g.Q.Q.Q.c.&.U.U.Q.g.^ U.C.Z.[ [ [./.(.[ [ (.S.#X[ k.#XZ.[.[ l.(.l.%X! . < 9 X y ",
"      , i Z.&X[.Z.>.Z.].].Z.[ Z.}._.N.;.`.].#XS.&.U.U.U.c.>.Z.A.&XS.k.%X[.%XN.l.%X[.[.l.l.%X%X%Xl.N.%X[.%Xl.N.[.[.;XK &       e ",
"J J J U M M M M N s N V V V s J H H M i N N N N s N V N M m M M M M x G n G G p J G V m x G G G p m M M N i s M M G a K G G K K ",
"PXLXLXHX{ * . @ .       o .   - o - +                           o o O $ o $ @   o + + o o o O o - - + . , + . ,     p IXLXLXLX;X",
"IXLXLXLXX.  X * @   ; o o ; o : : 5 1 : ; ; + @ * X @ @ @ > O ; ; o 2 2 ; : 2 ; o - - - , , , , - - o o , - . , &   r IXLXLXPX@X",
"PXPXPXPXX.  $ X X X @ @ @ ; : : : : : : ; ;   X @   @ O $ $ O O ;   o < ; o : : : 1 , , , & , , - ; o + , , . , . + r IXPXPXLX>X"
};
