/* XPM */
static char *dd8d63133ab0469bdd76af72445e82c2rvI8VaDx32pEhjts[] = {
/* columns rows colors chars-per-pixel */
"64 64 136 2 ",
"   c #291F27",
".  c #2B2227",
"X  c #2E242D",
"o  c #30262E",
"O  c #332A2E",
"+  c #362C33",
"@  c #392F36",
"#  c #3A3135",
"$  c #3D333B",
"%  c #40373E",
"&  c #42393D",
"*  c #3F3540",
"=  c #413740",
"-  c #453B43",
";  c #483F46",
":  c #493F48",
">  c #4A4146",
",  c #4D434B",
"<  c #50474E",
"1  c #52494E",
"2  c #514750",
"3  c #544B52",
"4  c #584F55",
"5  c #594F58",
"6  c #5A5155",
"7  c #5D545B",
"8  c #60575E",
"9  c #635A5E",
"0  c #615760",
"q  c #655C62",
"w  c #685F65",
"e  c #695F68",
"r  c #6B6265",
"t  c #6D636A",
"y  c #70676D",
"u  c #72696D",
"i  c #78706E",
"p  c #756C73",
"a  c #786F75",
"s  c #7B7275",
"d  c #7D747A",
"f  c #817977",
"g  c #80777D",
"h  c #837A7D",
"j  c #817780",
"k  c #857C82",
"l  c #887F85",
"z  c #897F8A",
"x  c #8B8285",
"c  c #8D848A",
"v  c #90878D",
"b  c #938A8D",
"n  c #99918F",
"m  c #918790",
"M  c #928890",
"N  c #948B90",
"B  c #948A92",
"V  c #958B93",
"C  c #958C91",
"Z  c #968D90",
"A  c #968D92",
"S  c #978E93",
"D  c #968C94",
"F  c #978D95",
"G  c #958C92",
"H  c #988F94",
"J  c #988E96",
"K  c #998F97",
"L  c #988F94",
"P  c #9A9192",
"I  c #9B9293",
"U  c #9C9492",
"Y  c #999095",
"T  c #9A9194",
"R  c #9B9295",
"E  c #9A9196",
"W  c #9B9297",
"Q  c #9C9396",
"!  c #9D9497",
"~  c #9E9596",
"^  c #9F9697",
"/  c #9A9195",
"(  c #9B9199",
")  c #9A9098",
"_  c #9C9398",
"`  c #9C929A",
"'  c #9D939B",
"]  c #9D9499",
"[  c #9E9598",
"{  c #9F9699",
"}  c #9E959A",
"|  c #9F969B",
" . c #9F959D",
".. c #9D939A",
"X. c #A09798",
"o. c #A0979A",
"O. c #A0979C",
"+. c #A0979D",
"@. c #A1989B",
"#. c #A1989D",
"$. c #A39A9D",
"%. c #A2999E",
"&. c #A39A9F",
"*. c #A49B9C",
"=. c #A49B9E",
"-. c #A59C9D",
";. c #A59C9F",
":. c #A69D9E",
">. c #A79E9F",
",. c #A2999E",
"<. c #A399A1",
"1. c #A49BA0",
"2. c #A59BA3",
"3. c #A59CA1",
"4. c #A69DA0",
"5. c #A79EA1",
"6. c #A69DA2",
"7. c #A79EA3",
"8. c #A59BA2",
"9. c #A89FA2",
"0. c #A99FA7",
"q. c #A89FA6",
"w. c #A9A0A5",
"e. c #ABA2A5",
"r. c #AAA1A6",
"t. c #ABA2A7",
"y. c #AAA1A6",
"u. c #ACA3A8",
"i. c #ACA2AA",
"p. c #B0A7AA",
"a. c #B0A7AC",
"s. c #B0A6AE",
"d. c #B1A8AD",
"f. c #B4AAB2",
"g. c #B8AEB6",
"h. c #BBB1B9",
/* pixels */
"i s h x c c c x b E @.4.u.d.a.w.w.u.w.w.4.4.+.E C E 7 & h b C C N C _ %.4.%.%.%.E b %.E %.E v q 9 c c d h c b x g s h s t & u s ",
"n U X.*.:.:.:.:.@.%.%.%.4.w.w.4.4.4.4.%.1.4.%.{ 1.%.q - h E %.4.4.1.1.4.w.w.u.d.%.E 4.%.4.H d > y :.p.4.4.9.w.*.*.{ :.b p > f b ",
"P P P P ^ ^ { ^ Q E H C H { { E E E E C C E E C E C 6 # p v E { %.{ E E { { %.4.%.{ %.{ 4.C u # 1 b 4.X.E C E E Q E @.c r $ s v ",
"b v c c b b b c b b b N E +.{ E { { { E E E E C C b 7 % s b { E { H N C H C C C C C N b E C p - , c 4.^ b v E @.v b Q v w $ u c ",
"b c x x x x h f s f k c N E C c b N N N C E E C H v 7 - s C %._ { b x z z k h h k c x x b C a 3 - h E v h d x b E Q ^ b r & u x ",
"c h g s f f s u r t p d k z h a p s d h x b N b H x 3 $ t c %.E E x a u u u u p d v x x c N u 3 1 v :.P x d k c ^ Q b c 9 & u x ",
"x f s s g h f s p p a s j k d a a d d g z M F F ( c 7 = p v 1.( ( z a y a d d g j H c z c M t 1 , c *.H k p g c E _ C N q > s C ",
"s u r t s h h f s a p p d g d p a d d d g z c c M k 5 - p c  .v c g p p d k z c c  .c k z N t 4 , c %.N d u h E b E C H q - u c ",
"d a u t u s d d g g g j d a y t t p a a d j c c v c < % a c 0.( j d d d g j z c c j H z c _ y 3 , g H C z d x b b b C H 7 > k x ",
"h d s s s s s a s d d a p p p a t p a a a d j k N v 3 - j N <.v k g d g j j k z N c ( M z k w 3 3 k E b h s x C +.b x b q , d x ",
"c x x x c x k d k k j d j j d p d g j j k c v M H v , $ d c F c k k k z c c c c c z v H _ N t % 3 j H _ m k c N c z k M t - y H ",
"b b C H H C c x d g d d k c z d a d d d d j k z z z 4 - k M N F F F F H K H F N F H c c c v a = , p k c c j k j v F N H p - 7 k ",
"6 6 6 6 6 3 < , > > : = $ = - : = - - = = = = = > 7 , : a p t t t e e w q 0 7 5 = ; = = = 3 w 7 + ; - - ; - > - 3 4 3 7 q 4 7 t ",
", , , > ; - = = , - - > , - = = $ = = $ $ = = $ X $ = + > $ + @ $ $ $ $ $ $ $ + , - , , - % % % $ ; $ % ; - ; = - - $ $ % $ $ - ",
"; > > > > > , , > - > 3 2 = - 4 7 8 0 0 w t t e t t t 7 0 3 3 5 , , , > , 3 3 2 : $ - $ $ , = $ + - $ = , - - = = = - - % = - , ",
"c b C _ %.w.i.f.f.g.h.+.e - w  . .<.<.<.2.t.t.2.i.<.i.1.2. .+._  . .( N N F F M H N c , - c 0.a.<.t. ._ +._ 1.2.<.v v N F N z d ",
"H E { +.%.4.4.%.0.{ { s 7 # p C  .( H E E E H C H H E _ { %.%.1.0.0.0.4.4.1.4.4.%.{ q 3 & u { w.0.i.i.i.t.u.t.0.0.1.+._ _ _ ( ( ",
"H E E E E E E E +.E _ a 7 $ u c C H H H E { ^ E C C C C C C P E C C b b c x x c Q %.r 4 # u %.4.<.<.+._ _ +.1.1.<. .( H ( _ _ ( ",
"{ { { E H C E { _ _ { a 7 & p x b P E E E X.X.Q P E E C b b b b ^ Q E C b c x c b %.u 6 + t *.*. .( v k k c F H F M c v F ( ( ( ",
"C b b c x c b _ _ { %.a 7 - p k b P E H H E E C Q ^ Q H b c c b ^ Q E b v x x x c E u 7 O r %.4.<.F k d a g z z c k j k v F H F ",
"N c x z k k c E E _ { p 6 % u k C C C b C H H C P E P C b c v b C b b c x k k k x c r 8 O 9 @.w.+.D k a a d j j j d a d c N N M ",
"E b x k g d z N C E { p 7 $ u x E b c b P P Q X.P P H C C C C C C b b v x x x x x l q 9 + 9 %.w.( m k d d z z k g a p d z M M c ",
"c g p y t t p d c M _ d 7 $ p c C k d x b v N { E C C C E Q E E b v c x k k k k x x q 7 + r 0.1.H c k d k v M c j d p d c N M c ",
"z d t t w q t p k z F d 7 + t c x u w p h d h v C b c b C E E C b b b c x k k k c c r 7 O u u.{ H c k g c N N v k d a d c N M c ",
"d p t t t w t a d c ( d w $ t z d r t u h p p 7 r t k k h k h b N c b x z x h k g H q 8 + q 4.E F M c z z c M H H c c M N ( N z ",
"c k k k g a p a a d z d y % q a d r r r t 6 q q r r d g d d p k x x C v x c x N c k 8 1 # s E C z c c c c c c v c d p d k M N c ",
"3 3 3 5 3 > - > 4 , 5 7 0 $ , 7 3 , , = - $ ; , 3 > , > ; ; - 3 3 < 4 , , 3 < 5 4 > 5 4 ; a 7 3 ; , 2 3 3 , > > - % % $ - ; , > ",
"; - - - - = - ; = @ % - 3 $ - - $ % - @ = , - = $ + $ = - $ + @ - $ $ + @ = $ $ $ + > - + 3 + $ - - - - = = = = - , 5 , , = - - ",
": - - - = = - : , - > = > - - = - ; 3 < < , $ > 7 4 < 3 7 7 8 7 $ % 3 3 3 7 3 3 , , , , = , , 3 > ; ; - = = = - % = = + ; = - - ",
"k z c m M m M M m m D k z m c c c j c v a 4 % d i.f.1. .<.2.t._ + 5 k c c c c N v H c _ +.( _ v N N v c k d d a g t , $ p g z g ",
"c D ` <.2.0.0.2.2.<.i.2.<.i.2.i.+.N H F a < + a _ g.h.h.h.a. .a o 5 c _ _ <.+.0.0.t._  .0.2.i.0.0.0.1.+.H M v c H a 3 $ k _ 2.( ",
"z c M N F F H F F m ` ` F ( c ( F C N k t 6 + q d E N c c v c q % 7 k b _ 0.<.<.+.0.0.+.1.%.<.4.+. . ._ _ { 1.0.d w , $ z E +.C ",
"c c b F { { _ (  .E (  .+.( F N C b E b t 4 # 3 d H k s h k z r $ 1 k x u.@.{ X.E b E { { { %.{ %.P H Q C c b @.x 7 6 & d %.w.{ ",
"k l c b C C c x k k c M N N N C _ C ^ b u 6 # 6 f H d u p d h r & 1 h h w.{ H v h g h x c b P C C c c b v l x b v 9 6 & s ^ *.E ",
"l x c b b c h s u u s h z c M H { E { b y 4 # 6 l ^ f u p s h r % 1 d d :.{ b d d s h x x b P b b k h x x h h x b q 6 $ s E X.Q ",
"c x x c c x h s u u u a g c M C ^ H { b r 1 + 3 k { k s d h k r # 1 d s @.Q c s k k b C C H H c c h s f h g g h b q 6 & g E ^ { ",
"c x f f h h h h h d a a h x b N H b E b r 1 O 1 h Q h s d h k r + 1 h d { C x s h k b E C b c d x d p s s s d h c 9 6 & k E b P ",
"c x f f f x x x x l f s h x c c b b E b r 1 O 3 h ^ k s f k x y # 1 l h { b x d d h b P C C c s x f s s g h h l x 9 6 ; x b k c ",
"c x x x x x x h f h k f g h x x c c E b t 1 + 5 k %.c k x c c y # 1 k k %.b x k h k b C C E E x x k h k k x x c z 9 3 - x b h x ",
"x x x x x x f s u s k h d g k x k x C v r 1 + 5 g +.b c b b x w # , g k 4.C c c h k x c c H _ b k h h k x x x c k 9 3 - c C h c ",
"c h x f s l g u s s d k h s h x x k C C p 7 O 3 x N z C b k v p & , k k w.E c x k x h c x k b k z k k k x c c c c 7 5 - x b h c ",
"s f b x h f u s f s s f k h h x k x E E s 7 + 8 d E v z h z M w % 1 h h %.E E E C _ b b c k b c C c x x x c x k h 9 7 > c v d x ",
"P b C x k h h E x h d z M F H ( v M ( F g 7 + 7 k 2.+.N c M ( y ; 8 c z 1.1.0.t. .t.<.1.1. .2.t.t.1. .+.2.0.2.+.( p 3 $ z _ c M ",
"q 9 9 6 7 7 , 3 3 , > 3 7 0 0 0 0 0 q w t 5 $ 8 d k k c k g k t @ 8 c z c p 7 > 3 7 7 7 q 0 0 w q 0 8 0 w t t t d t 3 = c H a a ",
"1 , 1 > > , = = > - - - ; - - = $ $ % - 3 - $ 7 , - - 4 3 , < , , 7 8 ; - $ - % - - - = - - % = - - - - - - - - - 4 < % 0 7 > 3 ",
"$ + & & $ = - , - - - - = * $ $ $ = ; % = + $ = $ $ $ % $ $ = $   $ $ + $ $ - $ $ + $ $ + $ $ $ + $ $ $ + + + @ + - $ o $ + X + ",
"3 = y H M c c c z z z z z z c c d d c k z j z y , 3 t p t y y t p d t t p t p t 3 > t d t a d p p p a a a a a d d g d k c j p w ",
"e $ t i.f.f.f.f.i.i.t.0.i.i.i.i.g.w.a.w.f.a.0.t ; 7 c 0.t.2.<.t.2.a.<.a.f.1._ c < , c 1.v _  .v <.+.+.<.1.1.<.+.+. .(  .N M  . .",
"w - d k 2.w.2.t.0.<. ._  . .( F E C C b C b t 9 , > k F ( ( H M H N b b _ b c w 6 > u N 4.1.4.0.+.{ +.%.4.4.%.%._ +._ { E E E k ",
"t > g x w.u.4.1.1.%.{ { { { E H P H Q C C x r 9 1 - g v N H ( F C b c k c k k 9 1 > p c 0.{ E E C C C C H C C N N C c v c c b g ",
"t > h c w.w.{ C E E H H H H H C P P X.^ C h q q 1 - d c N H F v x c x d h h z q , 1 d h w.E E H { { { { E H C C b b z z k x b h ",
"q - d z 4.1.b z x c c v v v b b H C { X.E h 9 q < & d v H F c k s h h p d h c t , 3 d u 4.C { %._ _ E H b v c v b b x z k x C k ",
"8 - d k 1.%.c h k k x x x x x x b v P { { l q q , $ a c K F c j p d h s g g x r ; 1 d y %.b { +.E E C v x z z x x c k k k x b h ",
"7 - h z %.{ c h h k k k k k k k c x b E { c r q < $ p c M M c z h k x k c h k q ; 1 d d %.N E E { E b x z k z z k k h k k x b h ",
"7 - j k  .( z d d d d g k z k k h x b H ^ b t 9 1 $ a c M c c k k k x c C z z t , < d x { N H E H c h s s d d d h k h z x c C h ",
"5 - g j F M j d y y p d k c c z g x C C E b t 9 1 & d M F c j d d s h x C z x u , > p x v c C E E c d p s d d d h k h k z c C k ",
"3 , d j _ c p w w t t p d j z c k h c b b x y q 6 $ d c N k c k h h x c v b k t 3 , k z E c v C v k d s s s s d s g h h k c c k ",
"3 - a g F k p w w w w t y a j k x h k k x x t 9 < % d N v c k g z d h c x h h g - > h h _ _ C x k h s p s d s p s d d s d k k h ",
"8 - d j c d p q t t t t t p d j k d h h x c p 8 3 , g _ c c g k C c c b x k g a 6 1 k k %.{ C z k h d a d k g p p s d s d k z k ",
"0 - g c M k k a p y t t y a d g s s h g k x t 4 > , k F c z d k s h x k x b k w 3 - s x %.c k x k k d a d z k p u p d d g h d s ",
"7 - k c m k m c k k k k z c m M c v P b v b d r 1 5 _ +.0.H M v x b C v x b c p < > x _ u.C v E E E b x c E H c p d h k k k g d ",
"q 2 j a p q t w 7 8 0 0 q w w w w r u q 9 r 9 8 , > d w p w t t a y y t 6 3 9 t ; > s q t q t t t t q 9 q r t q q w t t u p s d ",
"7 , e , , = = $ - - - : : : : : , ; , ; & > > 1 , & 4 $ - - - , , & - , - & 3 r 1 > q % & - , > > > ; - - > > > % & - ; > , 3 6 ",
"= + > X = = = = - - - = = = = = - $ & $ # # O # + O % $ @ - + $ & + @ $ $ $ # + $ . > + - % & % % $ & - - & - ; & - - - & $ # $ "
};
